<?xml version="1.0" encoding="UTF-8"?>
<svg xmlns="http://www.w3.org/2000/svg" xmlns:xlink="http://www.w3.org/1999/xlink" width="256px" height="256px" viewBox="0 0 256 256" version="1.1">
<g id="surface1">
<path style=" stroke:none;fill-rule:nonzero;fill:rgb(100%,100%,100%);fill-opacity:1;" d="M 0 0 L 0 8.5 C 4.417969 4.960938 8.558594 5.5 14 5.5 L 32 5.5 C 35.347656 5.5 40.191406 4.601562 42.804688 7.195312 C 44.6875 9.070312 45.003906 12.023438 45.5 14.5 L 48.601562 30 C 49.003906 32.011719 49.0625 36.664062 50.792969 37.984375 C 52.699219 39.4375 57.699219 38.5 60 38.5 L 235 38.5 C 241.191406 38.5 251.34375 36.421875 255.5 42 C 257.003906 38.421875 256 32.871094 256 29 L 256 0 Z M 0 0 "/>
<path style=" stroke:none;fill-rule:nonzero;fill:rgb(27.058824%,35.294118%,39.215686%);fill-opacity:1;" d="M 3.507812 5.828125 C -1.398438 7.40625 -0.996094 14.640625 3.5 16.425781 C 5.808594 17.339844 8.570312 17 11 17 L 25.5 17 C 27.660156 17 32.019531 16.179688 33.707031 17.800781 C 35.789062 19.804688 35.851562 25.75 36.398438 28.5 L 41.898438 56 L 55.699219 125 L 59.800781 145.5 C 60.890625 150.953125 61.808594 156.414062 64.15625 161.5 C 69.410156 172.886719 80.257812 180.960938 92.5 183.269531 C 99.203125 184.535156 106.210938 184 113 184 L 219 184 C 222.707031 184 228.132812 184.964844 231.40625 182.859375 C 235.390625 180.296875 234.214844 173.476562 229.5 172.613281 C 225.871094 171.949219 221.6875 172.5 218 172.5 L 117.5 172.5 C 106.15625 172.5 93.773438 173.886719 84 166.976562 C 81.292969 165.066406 78.820312 162.496094 76.746094 159.914062 C 73.289062 155.613281 72.441406 150.230469 71.398438 145 L 67.300781 124.5 L 50.898438 42.5 C 49.238281 34.199219 47.863281 25.816406 46.199219 17.5 C 45.566406 14.335938 45.4375 9.691406 43.175781 7.195312 C 40.914062 4.703125 36.515625 5.5 33.5 5.5 L 13.5 5.5 C 10.402344 5.5 6.480469 4.867188 3.507812 5.828125 Z M 3.507812 5.828125 "/>
<path style=" stroke:none;fill-rule:nonzero;fill:rgb(100%,100%,100%);fill-opacity:1;" d="M 0 13.5 L 0 256 L 256 256 L 256 49 C 255.105469 51.113281 255.15625 53.71875 254.859375 56 C 254.1875 61.164062 253.542969 66.328125 252.921875 71.5 C 251.226562 85.675781 249.273438 99.824219 247.578125 114 C 246.957031 119.171875 246.3125 124.335938 245.640625 129.5 C 245.316406 132 245.285156 134.855469 243.671875 136.945312 C 241.167969 140.199219 235.695312 139.921875 232 140.433594 C 221.675781 141.871094 211.324219 143.128906 201 144.566406 C 160.039062 150.257812 119.023438 155.808594 78 161 C 83.949219 172.472656 98.9375 172.5 110 172.5 L 223 172.5 C 226.65625 172.5 230.808594 171.816406 232.953125 175.507812 C 235.257812 179.464844 231.964844 183.226562 228 183.847656 C 224.769531 184.355469 221.265625 184 218 184 L 120.5 184 C 107.0625 184 91.992188 185.890625 80 178.46875 C 73.296875 174.316406 67.472656 168.191406 64.15625 161 C 59.921875 151.824219 58.96875 140.84375 57 131 L 41.199219 52 L 36.5 28.5 C 35.890625 25.445312 35.824219 20.855469 34.242188 18.160156 C 32.925781 15.90625 26.757812 17 24.5 17 C 16.542969 17 6.273438 19.101562 0 13.5 Z M 0 13.5 "/>
<path style=" stroke:none;fill-rule:nonzero;fill:rgb(100%,75.686275%,2.745098%);fill-opacity:1;" d="M 50.5 38.5 C 50.933594 48.5625 54.324219 59.125 56.300781 69 L 68 127.5 C 69.433594 134.667969 70.835938 141.839844 72.300781 149 C 73.011719 152.484375 74.003906 157.285156 76.695312 159.839844 C 78.917969 161.953125 83.773438 160.25 86.5 159.921875 C 95.847656 158.800781 105.164062 157.367188 114.5 156.140625 C 144.664062 152.175781 174.792969 147.703125 205 144.078125 C 213.84375 143.015625 222.679688 141.792969 231.5 140.566406 C 234.902344 140.09375 240.082031 140.355469 242.894531 138.148438 C 245.015625 136.480469 245.246094 133.480469 245.523438 131 C 246.011719 126.664062 246.578125 122.328125 247.140625 118 C 249.570312 99.347656 251.710938 80.652344 254.140625 62 C 254.804688 56.902344 255.867188 51.640625 255.992188 46.5 C 256.046875 44.277344 256.183594 41.835938 254.386719 40.214844 C 250.992188 37.148438 243.710938 38.5 239.5 38.5 Z M 50.5 38.5 "/>
<path style=" stroke:none;fill-rule:nonzero;fill:rgb(48.235294%,47.058824%,28.627451%);fill-opacity:1;" d="M 50.167969 39.332031 C 50.140625 39.359375 50.109375 39.890625 50.332031 39.667969 C 50.359375 39.640625 50.390625 39.109375 50.167969 39.332031 Z M 50.167969 39.332031 "/>
<path style=" stroke:none;fill-rule:nonzero;fill:rgb(63.137255%,55.294118%,21.176471%);fill-opacity:1;" d="M 50.667969 41.332031 C 50.640625 41.359375 50.609375 41.890625 50.832031 41.667969 C 50.859375 41.640625 50.890625 41.109375 50.667969 41.332031 M 51.167969 43.832031 C 51.140625 43.859375 51.109375 44.390625 51.332031 44.167969 C 51.359375 44.140625 51.390625 43.609375 51.167969 43.832031 Z M 51.167969 43.832031 "/>
<path style=" stroke:none;fill-rule:nonzero;fill:rgb(62.745098%,54.901961%,21.176471%);fill-opacity:1;" d="M 51.5 46 L 51.5 47.5 C 51.847656 46.722656 51.847656 46.777344 51.5 46 M 52 48.5 L 52 50 C 52.347656 49.222656 52.347656 49.277344 52 48.5 M 52.5 51 L 52.5 52.5 C 52.847656 51.722656 52.847656 51.777344 52.5 51 M 53 53.5 L 53 55 C 53.347656 54.222656 53.347656 54.277344 53 53.5 M 53.5 56 L 53.5 57.5 C 53.847656 56.722656 53.847656 56.777344 53.5 56 M 54 58.5 L 54 60 C 54.347656 59.222656 54.347656 59.277344 54 58.5 M 54.5 61 L 54.5 62.5 C 54.847656 61.722656 54.847656 61.777344 54.5 61 Z M 54.5 61 "/>
<path style=" stroke:none;fill-rule:nonzero;fill:rgb(99.215686%,86.27451%,48.235294%);fill-opacity:1;" d="M 116 61 C 116.625 61.34375 116.773438 61.375 117.5 61.5 C 116.875 61.15625 116.726562 61.125 116 61 Z M 116 61 "/>
<path style=" stroke:none;fill-rule:nonzero;fill:rgb(99.607843%,79.215686%,18.039216%);fill-opacity:1;" d="M 117.832031 61.167969 C 117.609375 61.390625 118.140625 61.359375 118.167969 61.332031 C 118.390625 61.109375 117.859375 61.140625 117.832031 61.167969 Z M 117.832031 61.167969 "/>
<path style=" stroke:none;fill-rule:nonzero;fill:rgb(98.823529%,87.058824%,51.764706%);fill-opacity:1;" d="M 149.5 61 C 150.125 61.34375 150.273438 61.375 151 61.5 C 150.375 61.15625 150.226562 61.125 149.5 61 Z M 149.5 61 "/>
<path style=" stroke:none;fill-rule:nonzero;fill:rgb(99.607843%,81.568627%,27.843137%);fill-opacity:1;" d="M 182.332031 61.167969 C 182.109375 61.390625 182.640625 61.359375 182.667969 61.332031 C 182.890625 61.109375 182.359375 61.140625 182.332031 61.167969 Z M 182.332031 61.167969 "/>
<path style=" stroke:none;fill-rule:nonzero;fill:rgb(99.215686%,85.882353%,46.27451%);fill-opacity:1;" d="M 183 61 C 183.753906 61.339844 184.15625 61.414062 185 61.5 C 184.246094 61.160156 183.84375 61.085938 183 61 Z M 183 61 "/>
<path style=" stroke:none;fill-rule:nonzero;fill:rgb(98.823529%,88.235294%,55.294118%);fill-opacity:1;" d="M 215.5 61 C 216.527344 61.4375 217.375 61.476562 218.5 61.5 C 217.472656 61.0625 216.625 61.023438 215.5 61 Z M 215.5 61 "/>
<path style=" stroke:none;fill-rule:nonzero;fill:rgb(99.215686%,85.490196%,43.921569%);fill-opacity:1;" d="M 81.5 61.5 L 82 62 Z M 81.5 61.5 "/>
<path style=" stroke:none;fill-rule:nonzero;fill:rgb(98.039216%,98.039216%,98.039216%);fill-opacity:1;" d="M 82.003906 61.789062 C 75.351562 63.632812 79.199219 74.40625 79.960938 79 C 82.554688 94.675781 85.265625 110.328125 87.875 126 C 88.636719 130.5625 88.679688 140.628906 96 138.707031 C 102.734375 136.9375 98.988281 126.167969 98.207031 121.5 L 90.375 74.5 C 89.617188 69.933594 89.277344 59.773438 82.003906 61.789062 Z M 82.003906 61.789062 "/>
<path style=" stroke:none;fill-rule:nonzero;fill:rgb(98.823529%,87.45098%,53.333333%);fill-opacity:1;" d="M 85 61.5 L 85.5 62 Z M 85 61.5 "/>
<path style=" stroke:none;fill-rule:nonzero;fill:rgb(98.823529%,89.411765%,61.176471%);fill-opacity:1;" d="M 114.5 61.5 L 115 62 Z M 114.5 61.5 "/>
<path style=" stroke:none;fill-rule:nonzero;fill:rgb(98.039216%,98.039216%,98.039216%);fill-opacity:1;" d="M 115.007812 61.851562 C 109.039062 63.921875 112.226562 73.421875 112.484375 78 C 113.308594 92.859375 115.773438 107.636719 116.5 122.5 C 116.714844 126.863281 117.324219 135.175781 123.996094 133.066406 C 130.066406 131.144531 127.296875 121.640625 126.957031 117 C 125.882812 102.335938 124.378906 87.628906 122.914062 73 C 122.457031 68.40625 122.285156 59.328125 115.007812 61.851562 Z M 115.007812 61.851562 "/>
<path style=" stroke:none;fill-rule:nonzero;fill:rgb(99.215686%,83.137255%,34.901961%);fill-opacity:1;" d="M 119 61.5 L 119.5 62 Z M 119 61.5 "/>
<path style=" stroke:none;fill-rule:nonzero;fill:rgb(98.039216%,98.039216%,98.039216%);fill-opacity:1;" d="M 148.019531 61.929688 C 143.4375 63.882812 145 71.523438 145 75.5 L 145 117 C 145 121.242188 144.984375 130.019531 151.996094 127.417969 C 157.132812 125.515625 155.5 117.820312 155.5 113.5 L 155.5 71.5 C 155.5 67.488281 156.066406 61.742188 150.5 61.535156 C 149.664062 61.507812 148.792969 61.597656 148.019531 61.929688 M 181.507812 61.871094 C 177.003906 63.636719 177.632812 71.03125 177.140625 75 C 175.511719 88.234375 173.59375 101.695312 172.757812 115 C 172.507812 118.976562 174.835938 123.40625 179.496094 121.996094 C 184.546875 120.46875 183.960938 113.253906 184.417969 109 L 187.582031 80 C 188.023438 75.878906 188.914062 71.640625 188.972656 67.5 C 189.027344 63.484375 185.609375 60.261719 181.507812 61.871094 Z M 181.507812 61.871094 "/>
<path style=" stroke:none;fill-rule:nonzero;fill:rgb(98.823529%,89.411765%,61.176471%);fill-opacity:1;" d="M 185.5 61.5 L 186 62 Z M 185.5 61.5 "/>
<path style=" stroke:none;fill-rule:nonzero;fill:rgb(98.823529%,89.019608%,60%);fill-opacity:1;" d="M 214.5 61.5 L 215 62 Z M 214.5 61.5 "/>
<path style=" stroke:none;fill-rule:nonzero;fill:rgb(98.039216%,98.039216%,98.039216%);fill-opacity:1;" d="M 215.007812 61.871094 C 210.980469 63.449219 210.59375 69.875 209.6875 73.5 L 203.5625 98 C 202.5625 102 200.847656 106.375 200.605469 110.5 C 200.367188 114.609375 203.949219 117.71875 207.992188 116.128906 C 212.019531 114.546875 212.40625 108.128906 213.3125 104.5 L 219.4375 80 C 220.445312 75.96875 222.085938 71.648438 222.40625 67.5 C 222.722656 63.378906 219.035156 60.292969 215.007812 61.871094 Z M 215.007812 61.871094 "/>
<path style=" stroke:none;fill-rule:nonzero;fill:rgb(98.823529%,90.980392%,68.627451%);fill-opacity:1;" d="M 219 61.5 L 219.5 62 Z M 219 61.5 "/>
<path style=" stroke:none;fill-rule:nonzero;fill:rgb(98.823529%,89.019608%,60.392157%);fill-opacity:1;" d="M 86 62 L 86.5 62.5 Z M 86 62 "/>
<path style=" stroke:none;fill-rule:nonzero;fill:rgb(98.823529%,87.45098%,53.333333%);fill-opacity:1;" d="M 113.5 62 L 114 62.5 Z M 113.5 62 "/>
<path style=" stroke:none;fill-rule:nonzero;fill:rgb(98.823529%,88.235294%,55.294118%);fill-opacity:1;" d="M 147 62 L 147.5 62.5 Z M 147 62 "/>
<path style=" stroke:none;fill-rule:nonzero;fill:rgb(98.823529%,88.627451%,57.254902%);fill-opacity:1;" d="M 153 62 L 153.5 62.5 Z M 153 62 "/>
<path style=" stroke:none;fill-rule:nonzero;fill:rgb(98.823529%,88.235294%,56.470588%);fill-opacity:1;" d="M 186.5 62 L 187 62.5 Z M 186.5 62 "/>
<path style=" stroke:none;fill-rule:nonzero;fill:rgb(99.215686%,85.490196%,45.098039%);fill-opacity:1;" d="M 213.5 62 L 214 62.5 Z M 213.5 62 "/>
<path style=" stroke:none;fill-rule:nonzero;fill:rgb(98.823529%,91.372549%,69.019608%);fill-opacity:1;" d="M 113 62.5 L 113.5 63 Z M 113 62.5 "/>
<path style=" stroke:none;fill-rule:nonzero;fill:rgb(99.215686%,82.745098%,32.156863%);fill-opacity:1;" d="M 120.5 62.5 L 121 63 Z M 120.5 62.5 "/>
<path style=" stroke:none;fill-rule:nonzero;fill:rgb(99.215686%,86.666667%,49.411765%);fill-opacity:1;" d="M 213 62.5 L 213.5 63 Z M 213 62.5 "/>
<path style=" stroke:none;fill-rule:nonzero;fill:rgb(98.823529%,87.843137%,54.117647%);fill-opacity:1;" d="M 212.5 63 L 213 63.5 Z M 212.5 63 "/>
<path style=" stroke:none;fill-rule:nonzero;fill:rgb(62.745098%,54.901961%,21.176471%);fill-opacity:1;" d="M 55 63.5 L 55 65 C 55.347656 64.222656 55.347656 64.277344 55 63.5 Z M 55 63.5 "/>
<path style=" stroke:none;fill-rule:nonzero;fill:rgb(99.215686%,85.882353%,46.27451%);fill-opacity:1;" d="M 112 63.5 L 112.5 64 Z M 112 63.5 "/>
<path style=" stroke:none;fill-rule:nonzero;fill:rgb(98.823529%,88.235294%,56.862745%);fill-opacity:1;" d="M 145.5 63.5 L 146 64 Z M 145.5 63.5 "/>
<path style=" stroke:none;fill-rule:nonzero;fill:rgb(98.823529%,89.019608%,60%);fill-opacity:1;" d="M 154.5 63.5 L 155 64 Z M 154.5 63.5 "/>
<path style=" stroke:none;fill-rule:nonzero;fill:rgb(98.823529%,87.058824%,50.980392%);fill-opacity:1;" d="M 188 63.5 L 188.5 64 Z M 188 63.5 "/>
<path style=" stroke:none;fill-rule:nonzero;fill:rgb(98.823529%,88.627451%,57.254902%);fill-opacity:1;" d="M 221.5 63.5 L 222 64 Z M 221.5 63.5 "/>
<path style=" stroke:none;fill-rule:nonzero;fill:rgb(98.823529%,87.45098%,52.156863%);fill-opacity:1;" d="M 78.5 64 L 79 64.5 Z M 78.5 64 "/>
<path style=" stroke:none;fill-rule:nonzero;fill:rgb(98.823529%,89.803922%,62.352941%);fill-opacity:1;" d="M 88 64 L 88.5 64.5 Z M 88 64 "/>
<path style=" stroke:none;fill-rule:nonzero;fill:rgb(98.823529%,89.411765%,60.784314%);fill-opacity:1;" d="M 121.5 64 L 122 64.5 Z M 121.5 64 "/>
<path style=" stroke:none;fill-rule:nonzero;fill:rgb(98.823529%,89.019608%,58.823529%);fill-opacity:1;" d="M 178.5 64 L 179 64.5 Z M 178.5 64 "/>
<path style=" stroke:none;fill-rule:nonzero;fill:rgb(98.823529%,90.196078%,64.705882%);fill-opacity:1;" d="M 212 64 L 212.5 64.5 Z M 212 64 "/>
<path style=" stroke:none;fill-rule:nonzero;fill:rgb(98.823529%,88.235294%,56.078431%);fill-opacity:1;" d="M 111.5 64.5 L 112 65 Z M 111.5 64.5 "/>
<path style=" stroke:none;fill-rule:nonzero;fill:rgb(98.823529%,87.843137%,54.509804%);fill-opacity:1;" d="M 188.5 64.5 L 189 65 Z M 188.5 64.5 "/>
<path style=" stroke:none;fill-rule:nonzero;fill:rgb(99.215686%,84.313725%,38.823529%);fill-opacity:1;" d="M 222 64.5 L 222.5 65 Z M 222 64.5 "/>
<path style=" stroke:none;fill-rule:nonzero;fill:rgb(98.431373%,93.333333%,77.647059%);fill-opacity:1;" d="M 78 65 L 78 66.5 C 78.347656 65.722656 78.347656 65.777344 78 65 Z M 78 65 "/>
<path style=" stroke:none;fill-rule:nonzero;fill:rgb(99.215686%,85.490196%,43.921569%);fill-opacity:1;" d="M 88.5 65 L 89 65.5 Z M 88.5 65 "/>
<path style=" stroke:none;fill-rule:nonzero;fill:rgb(98.823529%,87.843137%,54.901961%);fill-opacity:1;" d="M 211.5 65 L 212 65.5 Z M 211.5 65 "/>
<path style=" stroke:none;fill-rule:nonzero;fill:rgb(98.431373%,92.941176%,77.254902%);fill-opacity:1;" d="M 122.167969 65.832031 C 122.140625 65.859375 122.109375 66.390625 122.332031 66.167969 C 122.359375 66.140625 122.390625 65.609375 122.167969 65.832031 Z M 122.167969 65.832031 "/>
<path style=" stroke:none;fill-rule:nonzero;fill:rgb(99.215686%,84.705882%,41.568627%);fill-opacity:1;" d="M 144.667969 65.832031 C 144.640625 65.859375 144.609375 66.390625 144.832031 66.167969 C 144.859375 66.140625 144.890625 65.609375 144.667969 65.832031 Z M 144.667969 65.832031 "/>
<path style=" stroke:none;fill-rule:nonzero;fill:rgb(99.215686%,85.490196%,44.705882%);fill-opacity:1;" d="M 155.667969 65.832031 C 155.640625 65.859375 155.609375 66.390625 155.832031 66.167969 C 155.859375 66.140625 155.890625 65.609375 155.667969 65.832031 Z M 155.667969 65.832031 "/>
<path style=" stroke:none;fill-rule:nonzero;fill:rgb(62.745098%,54.901961%,21.176471%);fill-opacity:1;" d="M 55.5 66 L 55.5 67.5 C 55.847656 66.722656 55.847656 66.777344 55.5 66 Z M 55.5 66 "/>
<path style=" stroke:none;fill-rule:nonzero;fill:rgb(99.215686%,82.745098%,33.333333%);fill-opacity:1;" d="M 111 66 L 111 68 C 111.355469 67.121094 111.355469 66.878906 111 66 Z M 111 66 "/>
<path style=" stroke:none;fill-rule:nonzero;fill:rgb(99.607843%,81.960784%,30.196078%);fill-opacity:1;" d="M 189 66 L 189 68.5 C 189.414062 67.484375 189.414062 67.015625 189 66 Z M 189 66 "/>
<path style=" stroke:none;fill-rule:nonzero;fill:rgb(99.215686%,84.705882%,40.392157%);fill-opacity:1;" d="M 89 66.5 L 89 68 C 89.347656 67.222656 89.347656 67.277344 89 66.5 Z M 89 66.5 "/>
<path style=" stroke:none;fill-rule:nonzero;fill:rgb(98.823529%,89.803922%,62.352941%);fill-opacity:1;" d="M 144.5 66.5 L 144.5 123 C 146.003906 119.421875 145 113.871094 145 110 L 145 81 C 145 76.734375 146.152344 70.441406 144.5 66.5 Z M 144.5 66.5 "/>
<path style=" stroke:none;fill-rule:nonzero;fill:rgb(98.823529%,90.588235%,65.490196%);fill-opacity:1;" d="M 155.5 66.5 L 155.5 123 C 157.003906 119.421875 156 113.871094 156 110 L 156 81 C 156 76.734375 157.152344 70.441406 155.5 66.5 Z M 155.5 66.5 "/>
<path style=" stroke:none;fill-rule:nonzero;fill:rgb(98.823529%,89.803922%,62.352941%);fill-opacity:1;" d="M 211.167969 66.832031 C 211.140625 66.859375 211.109375 67.390625 211.332031 67.167969 C 211.359375 67.140625 211.390625 66.609375 211.167969 66.832031 Z M 211.167969 66.832031 "/>
<path style=" stroke:none;fill-rule:nonzero;fill:rgb(99.215686%,82.352941%,31.764706%);fill-opacity:1;" d="M 177.5 67.5 L 177.5 69 C 177.847656 68.222656 177.847656 68.277344 177.5 67.5 Z M 177.5 67.5 "/>
<path style=" stroke:none;fill-rule:nonzero;fill:rgb(99.607843%,81.568627%,27.843137%);fill-opacity:1;" d="M 122.5 68 L 122.5 69.5 C 122.847656 68.722656 122.847656 68.777344 122.5 68 Z M 122.5 68 "/>
<path style=" stroke:none;fill-rule:nonzero;fill:rgb(62.745098%,54.901961%,21.176471%);fill-opacity:1;" d="M 56 68.5 L 56 70 C 56.347656 69.222656 56.347656 69.277344 56 68.5 Z M 56 68.5 "/>
<path style=" stroke:none;fill-rule:nonzero;fill:rgb(98.823529%,87.058824%,51.764706%);fill-opacity:1;" d="M 78 68.5 L 78 70 C 78.347656 69.222656 78.347656 69.277344 78 68.5 Z M 78 68.5 "/>
<path style=" stroke:none;fill-rule:nonzero;fill:rgb(98.823529%,89.803922%,62.352941%);fill-opacity:1;" d="M 210.667969 68.832031 C 210.640625 68.859375 210.609375 69.390625 210.832031 69.167969 C 210.859375 69.140625 210.890625 68.609375 210.667969 68.832031 Z M 210.667969 68.832031 "/>
<path style=" stroke:none;fill-rule:nonzero;fill:rgb(99.215686%,82.745098%,32.54902%);fill-opacity:1;" d="M 222.167969 68.832031 C 222.140625 68.859375 222.109375 69.390625 222.332031 69.167969 C 222.359375 69.140625 222.390625 68.609375 222.167969 68.832031 Z M 222.167969 68.832031 "/>
<path style=" stroke:none;fill-rule:nonzero;fill:rgb(98.823529%,89.803922%,63.529412%);fill-opacity:1;" d="M 177.5 69 L 177.5 70.5 C 177.847656 69.722656 177.847656 69.777344 177.5 69 Z M 177.5 69 "/>
<path style=" stroke:none;fill-rule:nonzero;fill:rgb(99.215686%,84.705882%,40.392157%);fill-opacity:1;" d="M 89.5 69.5 L 89.5 71 C 89.847656 70.222656 89.847656 70.277344 89.5 69.5 Z M 89.5 69.5 "/>
<path style=" stroke:none;fill-rule:nonzero;fill:rgb(98.823529%,87.843137%,54.117647%);fill-opacity:1;" d="M 122.5 69.5 L 122.5 71 C 122.847656 70.222656 122.847656 70.277344 122.5 69.5 Z M 122.5 69.5 "/>
<path style=" stroke:none;fill-rule:nonzero;fill:rgb(98.431373%,92.156863%,72.54902%);fill-opacity:1;" d="M 188.667969 69.832031 C 188.640625 69.859375 188.609375 70.390625 188.832031 70.167969 C 188.859375 70.140625 188.890625 69.609375 188.667969 69.832031 Z M 188.667969 69.832031 "/>
<path style=" stroke:none;fill-rule:nonzero;fill:rgb(98.431373%,92.941176%,76.862745%);fill-opacity:1;" d="M 111.667969 70.332031 C 111.640625 70.359375 111.609375 70.890625 111.832031 70.667969 C 111.859375 70.640625 111.890625 70.109375 111.667969 70.332031 Z M 111.667969 70.332031 "/>
<path style=" stroke:none;fill-rule:nonzero;fill:rgb(98.823529%,87.058824%,51.372549%);fill-opacity:1;" d="M 188.667969 70.832031 C 188.640625 70.859375 188.609375 71.390625 188.832031 71.167969 C 188.859375 71.140625 188.890625 70.609375 188.667969 70.832031 Z M 188.667969 70.832031 "/>
<path style=" stroke:none;fill-rule:nonzero;fill:rgb(98.823529%,89.803922%,62.352941%);fill-opacity:1;" d="M 210.167969 70.832031 C 210.140625 70.859375 210.109375 71.390625 210.332031 71.167969 C 210.359375 71.140625 210.390625 70.609375 210.167969 70.832031 Z M 210.167969 70.832031 "/>
<path style=" stroke:none;fill-rule:nonzero;fill:rgb(99.215686%,82.745098%,32.54902%);fill-opacity:1;" d="M 221.667969 70.832031 C 221.640625 70.859375 221.609375 71.390625 221.832031 71.167969 C 221.859375 71.140625 221.890625 70.609375 221.667969 70.832031 Z M 221.667969 70.832031 "/>
<path style=" stroke:none;fill-rule:nonzero;fill:rgb(62.745098%,54.901961%,21.176471%);fill-opacity:1;" d="M 56.5 71 L 56.5 72.5 C 56.847656 71.722656 56.847656 71.777344 56.5 71 Z M 56.5 71 "/>
<path style=" stroke:none;fill-rule:nonzero;fill:rgb(98.823529%,89.019608%,59.215686%);fill-opacity:1;" d="M 111.5 71 L 111.5 72.5 C 111.847656 71.722656 111.847656 71.777344 111.5 71 Z M 111.5 71 "/>
<path style=" stroke:none;fill-rule:nonzero;fill:rgb(98.431373%,93.72549%,80%);fill-opacity:1;" d="M 122.667969 71.332031 C 122.640625 71.359375 122.609375 71.890625 122.832031 71.667969 C 122.859375 71.640625 122.890625 71.109375 122.667969 71.332031 Z M 122.667969 71.332031 "/>
<path style=" stroke:none;fill-rule:nonzero;fill:rgb(98.823529%,87.058824%,51.764706%);fill-opacity:1;" d="M 78.667969 71.832031 C 78.640625 71.859375 78.609375 72.390625 78.832031 72.167969 C 78.859375 72.140625 78.890625 71.609375 78.667969 71.832031 Z M 78.667969 71.832031 "/>
<path style=" stroke:none;fill-rule:nonzero;fill:rgb(99.607843%,81.960784%,30.196078%);fill-opacity:1;" d="M 188.667969 71.832031 C 188.640625 71.859375 188.609375 72.390625 188.832031 72.167969 C 188.859375 72.140625 188.890625 71.609375 188.667969 71.832031 Z M 188.667969 71.832031 "/>
<path style=" stroke:none;fill-rule:nonzero;fill:rgb(99.215686%,82.352941%,31.372549%);fill-opacity:1;" d="M 177.167969 72.332031 C 177.140625 72.359375 177.109375 72.890625 177.332031 72.667969 C 177.359375 72.640625 177.390625 72.109375 177.167969 72.332031 Z M 177.167969 72.332031 "/>
<path style=" stroke:none;fill-rule:nonzero;fill:rgb(99.607843%,79.607843%,20%);fill-opacity:1;" d="M 78.667969 72.832031 C 78.640625 72.859375 78.609375 73.390625 78.832031 73.167969 C 78.859375 73.140625 78.890625 72.609375 78.667969 72.832031 Z M 78.667969 72.832031 "/>
<path style=" stroke:none;fill-rule:nonzero;fill:rgb(99.215686%,84.705882%,40.392157%);fill-opacity:1;" d="M 90 72.5 L 90 74 C 90.347656 73.222656 90.347656 73.277344 90 72.5 Z M 90 72.5 "/>
<path style=" stroke:none;fill-rule:nonzero;fill:rgb(99.215686%,82.745098%,32.941176%);fill-opacity:1;" d="M 111.5 72.5 L 111.5 74 C 111.847656 73.222656 111.847656 73.277344 111.5 72.5 Z M 111.5 72.5 "/>
<path style=" stroke:none;fill-rule:nonzero;fill:rgb(98.823529%,89.803922%,62.352941%);fill-opacity:1;" d="M 209.667969 72.832031 C 209.640625 72.859375 209.609375 73.390625 209.832031 73.167969 C 209.859375 73.140625 209.890625 72.609375 209.667969 72.832031 Z M 209.667969 72.832031 "/>
<path style=" stroke:none;fill-rule:nonzero;fill:rgb(99.215686%,82.745098%,32.54902%);fill-opacity:1;" d="M 221.167969 72.832031 C 221.140625 72.859375 221.109375 73.390625 221.332031 73.167969 C 221.359375 73.140625 221.390625 72.609375 221.167969 72.832031 Z M 221.167969 72.832031 "/>
<path style=" stroke:none;fill-rule:nonzero;fill:rgb(98.823529%,87.45098%,52.941176%);fill-opacity:1;" d="M 177 73 L 177 74.5 C 177.347656 73.722656 177.347656 73.777344 177 73 Z M 177 73 "/>
<path style=" stroke:none;fill-rule:nonzero;fill:rgb(62.745098%,54.901961%,21.176471%);fill-opacity:1;" d="M 57 73.5 L 57 75 C 57.347656 74.222656 57.347656 74.277344 57 73.5 Z M 57 73.5 "/>
<path style=" stroke:none;fill-rule:nonzero;fill:rgb(99.607843%,81.568627%,27.843137%);fill-opacity:1;" d="M 123.167969 73.832031 C 123.140625 73.859375 123.109375 74.390625 123.332031 74.167969 C 123.359375 74.140625 123.390625 73.609375 123.167969 73.832031 Z M 123.167969 73.832031 "/>
<path style=" stroke:none;fill-rule:nonzero;fill:rgb(98.431373%,92.156863%,72.156863%);fill-opacity:1;" d="M 188 74 L 188 75.5 C 188.347656 74.722656 188.347656 74.777344 188 74 Z M 188 74 "/>
<path style=" stroke:none;fill-rule:nonzero;fill:rgb(98.823529%,87.058824%,51.764706%);fill-opacity:1;" d="M 79 74.5 L 79 76 C 79.347656 75.222656 79.347656 75.277344 79 74.5 Z M 79 74.5 "/>
<path style=" stroke:none;fill-rule:nonzero;fill:rgb(99.215686%,85.490196%,45.098039%);fill-opacity:1;" d="M 123.167969 74.832031 C 123.140625 74.859375 123.109375 75.390625 123.332031 75.167969 C 123.359375 75.140625 123.390625 74.609375 123.167969 74.832031 Z M 123.167969 74.832031 "/>
<path style=" stroke:none;fill-rule:nonzero;fill:rgb(98.823529%,89.803922%,62.352941%);fill-opacity:1;" d="M 209.167969 74.832031 C 209.140625 74.859375 209.109375 75.390625 209.332031 75.167969 C 209.359375 75.140625 209.390625 74.609375 209.167969 74.832031 Z M 209.167969 74.832031 "/>
<path style=" stroke:none;fill-rule:nonzero;fill:rgb(99.215686%,82.745098%,32.54902%);fill-opacity:1;" d="M 220.667969 74.832031 C 220.640625 74.859375 220.609375 75.390625 220.832031 75.167969 C 220.859375 75.140625 220.890625 74.609375 220.667969 74.832031 Z M 220.667969 74.832031 "/>
<path style=" stroke:none;fill-rule:nonzero;fill:rgb(99.215686%,84.313725%,40%);fill-opacity:1;" d="M 90.5 75.5 L 90.5 77 C 90.847656 76.222656 90.847656 76.277344 90.5 75.5 Z M 90.5 75.5 "/>
<path style=" stroke:none;fill-rule:nonzero;fill:rgb(98.431373%,92.941176%,76.470588%);fill-opacity:1;" d="M 112 75.5 L 112 77 C 112.347656 76.222656 112.347656 76.277344 112 75.5 Z M 112 75.5 "/>
<path style=" stroke:none;fill-rule:nonzero;fill:rgb(98.823529%,89.803922%,62.352941%);fill-opacity:1;" d="M 123 75.5 L 123 77 C 123.347656 76.222656 123.347656 76.277344 123 75.5 Z M 123 75.5 "/>
<path style=" stroke:none;fill-rule:nonzero;fill:rgb(99.215686%,84.705882%,40.392157%);fill-opacity:1;" d="M 188.167969 75.832031 C 188.140625 75.859375 188.109375 76.390625 188.332031 76.167969 C 188.359375 76.140625 188.390625 75.609375 188.167969 75.832031 Z M 188.167969 75.832031 "/>
<path style=" stroke:none;fill-rule:nonzero;fill:rgb(62.745098%,54.901961%,21.176471%);fill-opacity:1;" d="M 57.5 76 L 57.5 77.5 C 57.847656 76.722656 57.847656 76.777344 57.5 76 Z M 57.5 76 "/>
<path style=" stroke:none;fill-rule:nonzero;fill:rgb(99.215686%,82.352941%,31.372549%);fill-opacity:1;" d="M 176.667969 76.832031 C 176.640625 76.859375 176.609375 77.390625 176.832031 77.167969 C 176.859375 77.140625 176.890625 76.609375 176.667969 76.832031 Z M 176.667969 76.832031 "/>
<path style=" stroke:none;fill-rule:nonzero;fill:rgb(99.607843%,79.607843%,19.215686%);fill-opacity:1;" d="M 188.167969 76.832031 C 188.140625 76.859375 188.109375 77.390625 188.332031 77.167969 C 188.359375 77.140625 188.390625 76.609375 188.167969 76.832031 Z M 188.167969 76.832031 "/>
<path style=" stroke:none;fill-rule:nonzero;fill:rgb(98.823529%,89.803922%,62.352941%);fill-opacity:1;" d="M 208.667969 76.832031 C 208.640625 76.859375 208.609375 77.390625 208.832031 77.167969 C 208.859375 77.140625 208.890625 76.609375 208.667969 76.832031 Z M 208.667969 76.832031 "/>
<path style=" stroke:none;fill-rule:nonzero;fill:rgb(99.215686%,82.745098%,32.54902%);fill-opacity:1;" d="M 220.167969 76.832031 C 220.140625 76.859375 220.109375 77.390625 220.332031 77.167969 C 220.359375 77.140625 220.390625 76.609375 220.167969 76.832031 Z M 220.167969 76.832031 "/>
<path style=" stroke:none;fill-rule:nonzero;fill:rgb(99.215686%,86.666667%,50.196078%);fill-opacity:1;" d="M 112 77 L 112 78.5 C 112.347656 77.722656 112.347656 77.777344 112 77 Z M 112 77 "/>
<path style=" stroke:none;fill-rule:nonzero;fill:rgb(98.823529%,87.058824%,51.764706%);fill-opacity:1;" d="M 79.5 77.5 L 79.5 79 C 79.847656 78.222656 79.847656 78.277344 79.5 77.5 Z M 79.5 77.5 "/>
<path style=" stroke:none;fill-rule:nonzero;fill:rgb(98.823529%,87.45098%,52.941176%);fill-opacity:1;" d="M 176.5 77.5 L 176.5 79 C 176.847656 78.222656 176.847656 78.277344 176.5 77.5 Z M 176.5 77.5 "/>
<path style=" stroke:none;fill-rule:nonzero;fill:rgb(62.745098%,54.901961%,21.176471%);fill-opacity:1;" d="M 58 78.5 L 58 80 C 58.347656 79.222656 58.347656 79.277344 58 78.5 Z M 58 78.5 "/>
<path style=" stroke:none;fill-rule:nonzero;fill:rgb(99.215686%,84.313725%,40%);fill-opacity:1;" d="M 91 78.5 L 91 80 C 91.347656 79.222656 91.347656 79.277344 91 78.5 Z M 91 78.5 "/>
<path style=" stroke:none;fill-rule:nonzero;fill:rgb(99.607843%,80.784314%,23.921569%);fill-opacity:1;" d="M 112 78.5 L 112 80 C 112.347656 79.222656 112.347656 79.277344 112 78.5 Z M 112 78.5 "/>
<path style=" stroke:none;fill-rule:nonzero;fill:rgb(98.431373%,92.156863%,72.156863%);fill-opacity:1;" d="M 187.667969 78.832031 C 187.640625 78.859375 187.609375 79.390625 187.832031 79.167969 C 187.859375 79.140625 187.890625 78.609375 187.667969 78.832031 Z M 187.667969 78.832031 "/>
<path style=" stroke:none;fill-rule:nonzero;fill:rgb(98.823529%,89.803922%,62.352941%);fill-opacity:1;" d="M 208.167969 78.832031 C 208.140625 78.859375 208.109375 79.390625 208.332031 79.167969 C 208.359375 79.140625 208.390625 78.609375 208.167969 78.832031 Z M 208.167969 78.832031 "/>
<path style=" stroke:none;fill-rule:nonzero;fill:rgb(99.215686%,82.745098%,32.941176%);fill-opacity:1;" d="M 219.667969 78.832031 C 219.640625 78.859375 219.609375 79.390625 219.832031 79.167969 C 219.859375 79.140625 219.890625 78.609375 219.667969 78.832031 Z M 219.667969 78.832031 "/>
<path style=" stroke:none;fill-rule:nonzero;fill:rgb(99.607843%,81.568627%,27.843137%);fill-opacity:1;" d="M 123.667969 79.332031 C 123.640625 79.359375 123.609375 79.890625 123.832031 79.667969 C 123.859375 79.640625 123.890625 79.109375 123.667969 79.332031 Z M 123.667969 79.332031 "/>
<path style=" stroke:none;fill-rule:nonzero;fill:rgb(98.823529%,87.058824%,50.980392%);fill-opacity:1;" d="M 187.667969 79.832031 C 187.640625 79.859375 187.609375 80.390625 187.832031 80.167969 C 187.859375 80.140625 187.890625 79.609375 187.667969 79.832031 Z M 187.667969 79.832031 "/>
<path style=" stroke:none;fill-rule:nonzero;fill:rgb(99.215686%,85.490196%,45.098039%);fill-opacity:1;" d="M 123.667969 80.332031 C 123.640625 80.359375 123.609375 80.890625 123.832031 80.667969 C 123.859375 80.640625 123.890625 80.109375 123.667969 80.332031 Z M 123.667969 80.332031 "/>
<path style=" stroke:none;fill-rule:nonzero;fill:rgb(98.823529%,87.058824%,51.372549%);fill-opacity:1;" d="M 80 80.5 L 80 82 C 80.347656 81.222656 80.347656 81.277344 80 80.5 Z M 80 80.5 "/>
<path style=" stroke:none;fill-rule:nonzero;fill:rgb(99.607843%,81.960784%,29.803922%);fill-opacity:1;" d="M 187.667969 80.832031 C 187.640625 80.859375 187.609375 81.390625 187.832031 81.167969 C 187.859375 81.140625 187.890625 80.609375 187.667969 80.832031 Z M 187.667969 80.832031 "/>
<path style=" stroke:none;fill-rule:nonzero;fill:rgb(98.823529%,89.803922%,62.352941%);fill-opacity:1;" d="M 207.667969 80.832031 C 207.640625 80.859375 207.609375 81.390625 207.832031 81.167969 C 207.859375 81.140625 207.890625 80.609375 207.667969 80.832031 Z M 207.667969 80.832031 "/>
<path style=" stroke:none;fill-rule:nonzero;fill:rgb(99.215686%,82.745098%,32.941176%);fill-opacity:1;" d="M 219.167969 80.832031 C 219.140625 80.859375 219.109375 81.390625 219.332031 81.167969 C 219.359375 81.140625 219.390625 80.609375 219.167969 80.832031 Z M 219.167969 80.832031 "/>
<path style=" stroke:none;fill-rule:nonzero;fill:rgb(62.745098%,54.901961%,21.176471%);fill-opacity:1;" d="M 58.5 81 L 58.5 82.5 C 58.847656 81.722656 58.847656 81.777344 58.5 81 Z M 58.5 81 "/>
<path style=" stroke:none;fill-rule:nonzero;fill:rgb(98.431373%,92.941176%,76.078431%);fill-opacity:1;" d="M 112.667969 81.332031 C 112.640625 81.359375 112.609375 81.890625 112.832031 81.667969 C 112.859375 81.640625 112.890625 81.109375 112.667969 81.332031 Z M 112.667969 81.332031 "/>
<path style=" stroke:none;fill-rule:nonzero;fill:rgb(98.823529%,89.803922%,62.352941%);fill-opacity:1;" d="M 123.667969 81.332031 C 123.640625 81.359375 123.609375 81.890625 123.832031 81.667969 C 123.859375 81.640625 123.890625 81.109375 123.667969 81.332031 Z M 123.667969 81.332031 "/>
<path style=" stroke:none;fill-rule:nonzero;fill:rgb(99.215686%,82.352941%,31.372549%);fill-opacity:1;" d="M 176.167969 81.332031 C 176.140625 81.359375 176.109375 81.890625 176.332031 81.667969 C 176.359375 81.640625 176.390625 81.109375 176.167969 81.332031 Z M 176.167969 81.332031 "/>
<path style=" stroke:none;fill-rule:nonzero;fill:rgb(99.215686%,84.313725%,40%);fill-opacity:1;" d="M 91.667969 81.832031 C 91.640625 81.859375 91.609375 82.390625 91.832031 82.167969 C 91.859375 82.140625 91.890625 81.609375 91.667969 81.832031 Z M 91.667969 81.832031 "/>
<path style=" stroke:none;fill-rule:nonzero;fill:rgb(98.823529%,89.019608%,58.823529%);fill-opacity:1;" d="M 112.5 82 L 112.5 83.5 C 112.847656 82.722656 112.847656 82.777344 112.5 82 Z M 112.5 82 "/>
<path style=" stroke:none;fill-rule:nonzero;fill:rgb(98.431373%,93.72549%,79.607843%);fill-opacity:1;" d="M 123.667969 82.332031 C 123.640625 82.359375 123.609375 82.890625 123.832031 82.667969 C 123.859375 82.640625 123.890625 82.109375 123.667969 82.332031 Z M 123.667969 82.332031 "/>
<path style=" stroke:none;fill-rule:nonzero;fill:rgb(98.823529%,87.45098%,52.941176%);fill-opacity:1;" d="M 176 82 L 176 83.5 C 176.347656 82.722656 176.347656 82.777344 176 82 Z M 176 82 "/>
<path style=" stroke:none;fill-rule:nonzero;fill:rgb(98.431373%,91.764706%,71.764706%);fill-opacity:1;" d="M 91.667969 82.832031 C 91.640625 82.859375 91.609375 83.390625 91.832031 83.167969 C 91.859375 83.140625 91.890625 82.609375 91.667969 82.832031 Z M 91.667969 82.832031 "/>
<path style=" stroke:none;fill-rule:nonzero;fill:rgb(98.823529%,89.803922%,62.352941%);fill-opacity:1;" d="M 207.167969 82.832031 C 207.140625 82.859375 207.109375 83.390625 207.332031 83.167969 C 207.359375 83.140625 207.390625 82.609375 207.167969 82.832031 Z M 207.167969 82.832031 "/>
<path style=" stroke:none;fill-rule:nonzero;fill:rgb(99.215686%,82.745098%,32.941176%);fill-opacity:1;" d="M 218.667969 82.832031 C 218.640625 82.859375 218.609375 83.390625 218.832031 83.167969 C 218.859375 83.140625 218.890625 82.609375 218.667969 82.832031 Z M 218.667969 82.832031 "/>
<path style=" stroke:none;fill-rule:nonzero;fill:rgb(98.431373%,91.764706%,71.764706%);fill-opacity:1;" d="M 187 83 L 187 84.5 C 187.347656 83.722656 187.347656 83.777344 187 83 Z M 187 83 "/>
<path style=" stroke:none;fill-rule:nonzero;fill:rgb(62.745098%,54.901961%,21.176471%);fill-opacity:1;" d="M 59 83.5 L 59 85 C 59.347656 84.222656 59.347656 84.277344 59 83.5 Z M 59 83.5 "/>
<path style=" stroke:none;fill-rule:nonzero;fill:rgb(98.823529%,87.058824%,51.372549%);fill-opacity:1;" d="M 80.667969 83.832031 C 80.640625 83.859375 80.609375 84.390625 80.832031 84.167969 C 80.859375 84.140625 80.890625 83.609375 80.667969 83.832031 Z M 80.667969 83.832031 "/>
<path style=" stroke:none;fill-rule:nonzero;fill:rgb(99.215686%,82.745098%,32.54902%);fill-opacity:1;" d="M 112.5 83.5 L 112.5 85 C 112.847656 84.222656 112.847656 84.277344 112.5 83.5 Z M 112.5 83.5 "/>
<path style=" stroke:none;fill-rule:nonzero;fill:rgb(99.607843%,79.607843%,19.607843%);fill-opacity:1;" d="M 80.667969 84.832031 C 80.640625 84.859375 80.609375 85.390625 80.832031 85.167969 C 80.859375 85.140625 80.890625 84.609375 80.667969 84.832031 Z M 80.667969 84.832031 "/>
<path style=" stroke:none;fill-rule:nonzero;fill:rgb(99.215686%,84.313725%,40%);fill-opacity:1;" d="M 92.167969 84.832031 C 92.140625 84.859375 92.109375 85.390625 92.332031 85.167969 C 92.359375 85.140625 92.390625 84.609375 92.167969 84.832031 Z M 92.167969 84.832031 "/>
<path style=" stroke:none;fill-rule:nonzero;fill:rgb(99.607843%,81.568627%,27.843137%);fill-opacity:1;" d="M 124.167969 84.832031 C 124.140625 84.859375 124.109375 85.390625 124.332031 85.167969 C 124.359375 85.140625 124.390625 84.609375 124.167969 84.832031 Z M 124.167969 84.832031 "/>
<path style=" stroke:none;fill-rule:nonzero;fill:rgb(99.215686%,84.313725%,40%);fill-opacity:1;" d="M 187 84.5 L 187 86 C 187.347656 85.222656 187.347656 85.277344 187 84.5 Z M 187 84.5 "/>
<path style=" stroke:none;fill-rule:nonzero;fill:rgb(98.823529%,89.803922%,62.352941%);fill-opacity:1;" d="M 206.667969 84.832031 C 206.640625 84.859375 206.609375 85.390625 206.832031 85.167969 C 206.859375 85.140625 206.890625 84.609375 206.667969 84.832031 Z M 206.667969 84.832031 "/>
<path style=" stroke:none;fill-rule:nonzero;fill:rgb(99.215686%,82.745098%,32.941176%);fill-opacity:1;" d="M 218.167969 84.832031 C 218.140625 84.859375 218.109375 85.390625 218.332031 85.167969 C 218.359375 85.140625 218.390625 84.609375 218.167969 84.832031 Z M 218.167969 84.832031 "/>
<path style=" stroke:none;fill-rule:nonzero;fill:rgb(98.431373%,91.764706%,71.764706%);fill-opacity:1;" d="M 92.167969 85.832031 C 92.140625 85.859375 92.109375 86.390625 92.332031 86.167969 C 92.359375 86.140625 92.390625 85.609375 92.167969 85.832031 Z M 92.167969 85.832031 "/>
<path style=" stroke:none;fill-rule:nonzero;fill:rgb(99.215686%,85.490196%,45.098039%);fill-opacity:1;" d="M 124 85.5 L 124 87 C 124.347656 86.222656 124.347656 86.277344 124 85.5 Z M 124 85.5 "/>
<path style=" stroke:none;fill-rule:nonzero;fill:rgb(99.215686%,82.352941%,31.372549%);fill-opacity:1;" d="M 175.5 85.5 L 175.5 87 C 175.847656 86.222656 175.847656 86.277344 175.5 85.5 Z M 175.5 85.5 "/>
<path style=" stroke:none;fill-rule:nonzero;fill:rgb(62.745098%,54.901961%,21.176471%);fill-opacity:1;" d="M 59.5 86 L 59.5 87.5 C 59.847656 86.722656 59.847656 86.777344 59.5 86 Z M 59.5 86 "/>
<path style=" stroke:none;fill-rule:nonzero;fill:rgb(98.823529%,87.058824%,51.372549%);fill-opacity:1;" d="M 81.167969 86.832031 C 81.140625 86.859375 81.109375 87.390625 81.332031 87.167969 C 81.359375 87.140625 81.390625 86.609375 81.167969 86.832031 Z M 81.167969 86.832031 "/>
<path style=" stroke:none;fill-rule:nonzero;fill:rgb(98.431373%,92.941176%,76.078431%);fill-opacity:1;" d="M 113 86.5 L 113 88 C 113.347656 87.222656 113.347656 87.277344 113 86.5 Z M 113 86.5 "/>
<path style=" stroke:none;fill-rule:nonzero;fill:rgb(98.823529%,89.803922%,62.352941%);fill-opacity:1;" d="M 206.167969 86.832031 C 206.140625 86.859375 206.109375 87.390625 206.332031 87.167969 C 206.359375 87.140625 206.390625 86.609375 206.167969 86.832031 Z M 206.167969 86.832031 "/>
<path style=" stroke:none;fill-rule:nonzero;fill:rgb(99.215686%,82.745098%,32.941176%);fill-opacity:1;" d="M 217.667969 86.832031 C 217.640625 86.859375 217.609375 87.390625 217.832031 87.167969 C 217.859375 87.140625 217.890625 86.609375 217.667969 86.832031 Z M 217.667969 86.832031 "/>
<path style=" stroke:none;fill-rule:nonzero;fill:rgb(98.431373%,91.764706%,70.980392%);fill-opacity:1;" d="M 124 87 L 124 88.5 C 124.347656 87.722656 124.347656 87.777344 124 87 Z M 124 87 "/>
<path style=" stroke:none;fill-rule:nonzero;fill:rgb(98.823529%,89.803922%,63.137255%);fill-opacity:1;" d="M 175.667969 87.332031 C 175.640625 87.359375 175.609375 87.890625 175.832031 87.667969 C 175.859375 87.640625 175.890625 87.109375 175.667969 87.332031 Z M 175.667969 87.332031 "/>
<path style=" stroke:none;fill-rule:nonzero;fill:rgb(99.607843%,79.607843%,19.607843%);fill-opacity:1;" d="M 81.167969 87.832031 C 81.140625 87.859375 81.109375 88.390625 81.332031 88.167969 C 81.359375 88.140625 81.390625 87.609375 81.167969 87.832031 Z M 81.167969 87.832031 "/>
<path style=" stroke:none;fill-rule:nonzero;fill:rgb(99.215686%,84.313725%,40%);fill-opacity:1;" d="M 92.667969 87.832031 C 92.640625 87.859375 92.609375 88.390625 92.832031 88.167969 C 92.859375 88.140625 92.890625 87.609375 92.667969 87.832031 Z M 92.667969 87.832031 "/>
<path style=" stroke:none;fill-rule:nonzero;fill:rgb(98.431373%,91.764706%,71.372549%);fill-opacity:1;" d="M 186.5 87.5 L 186.5 89 C 186.847656 88.222656 186.847656 88.277344 186.5 87.5 Z M 186.5 87.5 "/>
<path style=" stroke:none;fill-rule:nonzero;fill:rgb(99.215686%,86.666667%,49.803922%);fill-opacity:1;" d="M 113 88 L 113 89.5 C 113.347656 88.722656 113.347656 88.777344 113 88 Z M 113 88 "/>
<path style=" stroke:none;fill-rule:nonzero;fill:rgb(62.745098%,54.901961%,21.176471%);fill-opacity:1;" d="M 60 88.5 L 60 90 C 60.347656 89.222656 60.347656 89.277344 60 88.5 Z M 60 88.5 "/>
<path style=" stroke:none;fill-rule:nonzero;fill:rgb(98.431373%,91.764706%,71.764706%);fill-opacity:1;" d="M 92.667969 88.832031 C 92.640625 88.859375 92.609375 89.390625 92.832031 89.167969 C 92.859375 89.140625 92.890625 88.609375 92.667969 88.832031 Z M 92.667969 88.832031 "/>
<path style=" stroke:none;fill-rule:nonzero;fill:rgb(98.823529%,89.411765%,61.960784%);fill-opacity:1;" d="M 205.667969 88.832031 C 205.640625 88.859375 205.609375 89.390625 205.832031 89.167969 C 205.859375 89.140625 205.890625 88.609375 205.667969 88.832031 Z M 205.667969 88.832031 "/>
<path style=" stroke:none;fill-rule:nonzero;fill:rgb(99.215686%,82.745098%,32.941176%);fill-opacity:1;" d="M 217.167969 88.832031 C 217.140625 88.859375 217.109375 89.390625 217.332031 89.167969 C 217.359375 89.140625 217.390625 88.609375 217.167969 88.832031 Z M 217.167969 88.832031 "/>
<path style=" stroke:none;fill-rule:nonzero;fill:rgb(99.215686%,84.313725%,39.607843%);fill-opacity:1;" d="M 186.5 89 L 186.5 90.5 C 186.847656 89.722656 186.847656 89.777344 186.5 89 Z M 186.5 89 "/>
<path style=" stroke:none;fill-rule:nonzero;fill:rgb(98.823529%,87.058824%,51.372549%);fill-opacity:1;" d="M 81.667969 89.832031 C 81.640625 89.859375 81.609375 90.390625 81.832031 90.167969 C 81.859375 90.140625 81.890625 89.609375 81.667969 89.832031 Z M 81.667969 89.832031 "/>
<path style=" stroke:none;fill-rule:nonzero;fill:rgb(99.607843%,80.784314%,23.529412%);fill-opacity:1;" d="M 113.167969 89.832031 C 113.140625 89.859375 113.109375 90.390625 113.332031 90.167969 C 113.359375 90.140625 113.390625 89.609375 113.167969 89.832031 Z M 113.167969 89.832031 "/>
<path style=" stroke:none;fill-rule:nonzero;fill:rgb(99.607843%,81.568627%,27.843137%);fill-opacity:1;" d="M 124.667969 90.332031 C 124.640625 90.359375 124.609375 90.890625 124.832031 90.667969 C 124.859375 90.640625 124.890625 90.109375 124.667969 90.332031 Z M 124.667969 90.332031 "/>
<path style=" stroke:none;fill-rule:nonzero;fill:rgb(99.215686%,82.352941%,31.372549%);fill-opacity:1;" d="M 175 90 L 175 91.5 C 175.347656 90.722656 175.347656 90.777344 175 90 Z M 175 90 "/>
<path style=" stroke:none;fill-rule:nonzero;fill:rgb(99.607843%,79.607843%,19.215686%);fill-opacity:1;" d="M 81.667969 90.832031 C 81.640625 90.859375 81.609375 91.390625 81.832031 91.167969 C 81.859375 91.140625 81.890625 90.609375 81.667969 90.832031 Z M 81.667969 90.832031 "/>
<path style=" stroke:none;fill-rule:nonzero;fill:rgb(99.215686%,84.313725%,40%);fill-opacity:1;" d="M 93 90.5 L 93 92 C 93.347656 91.222656 93.347656 91.277344 93 90.5 Z M 93 90.5 "/>
<path style=" stroke:none;fill-rule:nonzero;fill:rgb(98.823529%,89.411765%,61.960784%);fill-opacity:1;" d="M 205.167969 90.832031 C 205.140625 90.859375 205.109375 91.390625 205.332031 91.167969 C 205.359375 91.140625 205.390625 90.609375 205.167969 90.832031 Z M 205.167969 90.832031 "/>
<path style=" stroke:none;fill-rule:nonzero;fill:rgb(99.215686%,82.745098%,33.333333%);fill-opacity:1;" d="M 216.667969 90.832031 C 216.640625 90.859375 216.609375 91.390625 216.832031 91.167969 C 216.859375 91.140625 216.890625 90.609375 216.667969 90.832031 Z M 216.667969 90.832031 "/>
<path style=" stroke:none;fill-rule:nonzero;fill:rgb(62.745098%,54.901961%,21.176471%);fill-opacity:1;" d="M 60.5 91 L 60.5 92.5 C 60.847656 91.722656 60.847656 91.777344 60.5 91 Z M 60.5 91 "/>
<path style=" stroke:none;fill-rule:nonzero;fill:rgb(99.215686%,85.490196%,45.098039%);fill-opacity:1;" d="M 124.5 91 L 124.5 92.5 C 124.847656 91.722656 124.847656 91.777344 124.5 91 Z M 124.5 91 "/>
<path style=" stroke:none;fill-rule:nonzero;fill:rgb(98.823529%,89.803922%,63.137255%);fill-opacity:1;" d="M 175.167969 91.832031 C 175.140625 91.859375 175.109375 92.390625 175.332031 92.167969 C 175.359375 92.140625 175.390625 91.609375 175.167969 91.832031 Z M 175.167969 91.832031 "/>
<path style=" stroke:none;fill-rule:nonzero;fill:rgb(98.431373%,92.941176%,75.686275%);fill-opacity:1;" d="M 113.667969 92.332031 C 113.640625 92.359375 113.609375 92.890625 113.832031 92.667969 C 113.859375 92.640625 113.890625 92.109375 113.667969 92.332031 Z M 113.667969 92.332031 "/>
<path style=" stroke:none;fill-rule:nonzero;fill:rgb(98.431373%,91.764706%,71.372549%);fill-opacity:1;" d="M 186 92 L 186 93.5 C 186.347656 92.722656 186.347656 92.777344 186 92 Z M 186 92 "/>
<path style=" stroke:none;fill-rule:nonzero;fill:rgb(98.823529%,87.058824%,50.980392%);fill-opacity:1;" d="M 82 92.5 L 82 94 C 82.347656 93.222656 82.347656 93.277344 82 92.5 Z M 82 92.5 "/>
<path style=" stroke:none;fill-rule:nonzero;fill:rgb(98.431373%,91.764706%,70.980392%);fill-opacity:1;" d="M 124.5 92.5 L 124.5 94 C 124.847656 93.222656 124.847656 93.277344 124.5 92.5 Z M 124.5 92.5 "/>
<path style=" stroke:none;fill-rule:nonzero;fill:rgb(98.823529%,89.411765%,61.960784%);fill-opacity:1;" d="M 204.667969 92.832031 C 204.640625 92.859375 204.609375 93.390625 204.832031 93.167969 C 204.859375 93.140625 204.890625 92.609375 204.667969 92.832031 Z M 204.667969 92.832031 "/>
<path style=" stroke:none;fill-rule:nonzero;fill:rgb(99.215686%,82.745098%,33.333333%);fill-opacity:1;" d="M 216.167969 92.832031 C 216.140625 92.859375 216.109375 93.390625 216.332031 93.167969 C 216.359375 93.140625 216.390625 92.609375 216.167969 92.832031 Z M 216.167969 92.832031 "/>
<path style=" stroke:none;fill-rule:nonzero;fill:rgb(98.823529%,88.627451%,58.431373%);fill-opacity:1;" d="M 113.667969 93.332031 C 113.640625 93.359375 113.609375 93.890625 113.832031 93.667969 C 113.859375 93.640625 113.890625 93.109375 113.667969 93.332031 Z M 113.667969 93.332031 "/>
<path style=" stroke:none;fill-rule:nonzero;fill:rgb(62.745098%,54.901961%,21.176471%);fill-opacity:1;" d="M 61 93.5 L 61 95 C 61.347656 94.222656 61.347656 94.277344 61 93.5 Z M 61 93.5 "/>
<path style=" stroke:none;fill-rule:nonzero;fill:rgb(99.215686%,84.313725%,40%);fill-opacity:1;" d="M 93.5 93.5 L 93.5 95 C 93.847656 94.222656 93.847656 94.277344 93.5 93.5 Z M 93.5 93.5 "/>
<path style=" stroke:none;fill-rule:nonzero;fill:rgb(99.215686%,84.313725%,39.215686%);fill-opacity:1;" d="M 186 93.5 L 186 95 C 186.347656 94.222656 186.347656 94.277344 186 93.5 Z M 186 93.5 "/>
<path style=" stroke:none;fill-rule:nonzero;fill:rgb(99.215686%,84.705882%,40.784314%);fill-opacity:1;" d="M 113.5 94 L 113.5 95.5 C 113.847656 94.722656 113.847656 94.777344 113.5 94 Z M 113.5 94 "/>
<path style=" stroke:none;fill-rule:nonzero;fill:rgb(99.215686%,82.352941%,31.372549%);fill-opacity:1;" d="M 174.5 94.5 L 174.5 96 C 174.847656 95.222656 174.847656 95.277344 174.5 94.5 Z M 174.5 94.5 "/>
<path style=" stroke:none;fill-rule:nonzero;fill:rgb(98.823529%,89.411765%,61.960784%);fill-opacity:1;" d="M 204.167969 94.832031 C 204.140625 94.859375 204.109375 95.390625 204.332031 95.167969 C 204.359375 95.140625 204.390625 94.609375 204.167969 94.832031 Z M 204.167969 94.832031 "/>
<path style=" stroke:none;fill-rule:nonzero;fill:rgb(99.215686%,82.745098%,33.333333%);fill-opacity:1;" d="M 215.667969 94.832031 C 215.640625 94.859375 215.609375 95.390625 215.832031 95.167969 C 215.859375 95.140625 215.890625 94.609375 215.667969 94.832031 Z M 215.667969 94.832031 "/>
<path style=" stroke:none;fill-rule:nonzero;fill:rgb(98.823529%,87.058824%,50.980392%);fill-opacity:1;" d="M 82.5 95.5 L 82.5 97 C 82.847656 96.222656 82.847656 96.277344 82.5 95.5 Z M 82.5 95.5 "/>
<path style=" stroke:none;fill-rule:nonzero;fill:rgb(99.607843%,81.568627%,27.45098%);fill-opacity:1;" d="M 125.167969 95.832031 C 125.140625 95.859375 125.109375 96.390625 125.332031 96.167969 C 125.359375 96.140625 125.390625 95.609375 125.167969 95.832031 Z M 125.167969 95.832031 "/>
<path style=" stroke:none;fill-rule:nonzero;fill:rgb(62.745098%,54.901961%,21.176471%);fill-opacity:1;" d="M 61.5 96 L 61.5 97.5 C 61.847656 96.722656 61.847656 96.777344 61.5 96 Z M 61.5 96 "/>
<path style=" stroke:none;fill-rule:nonzero;fill:rgb(98.823529%,89.803922%,63.137255%);fill-opacity:1;" d="M 174.5 96 L 174.5 97.5 C 174.847656 96.722656 174.847656 96.777344 174.5 96 Z M 174.5 96 "/>
<path style=" stroke:none;fill-rule:nonzero;fill:rgb(99.215686%,84.313725%,40%);fill-opacity:1;" d="M 94 96.5 L 94 98 C 94.347656 97.222656 94.347656 97.277344 94 96.5 Z M 94 96.5 "/>
<path style=" stroke:none;fill-rule:nonzero;fill:rgb(99.215686%,85.490196%,45.098039%);fill-opacity:1;" d="M 125 96.5 L 125 98 C 125.347656 97.222656 125.347656 97.277344 125 96.5 Z M 125 96.5 "/>
<path style=" stroke:none;fill-rule:nonzero;fill:rgb(98.431373%,91.764706%,70.980392%);fill-opacity:1;" d="M 185.5 96.5 L 185.5 98 C 185.847656 97.222656 185.847656 97.277344 185.5 96.5 Z M 185.5 96.5 "/>
<path style=" stroke:none;fill-rule:nonzero;fill:rgb(98.823529%,89.411765%,61.960784%);fill-opacity:1;" d="M 203.667969 96.832031 C 203.640625 96.859375 203.609375 97.390625 203.832031 97.167969 C 203.859375 97.140625 203.890625 96.609375 203.667969 96.832031 Z M 203.667969 96.832031 "/>
<path style=" stroke:none;fill-rule:nonzero;fill:rgb(99.215686%,82.745098%,33.333333%);fill-opacity:1;" d="M 215.167969 96.832031 C 215.140625 96.859375 215.109375 97.390625 215.332031 97.167969 C 215.359375 97.140625 215.390625 96.609375 215.167969 96.832031 Z M 215.167969 96.832031 "/>
<path style=" stroke:none;fill-rule:nonzero;fill:rgb(98.431373%,92.941176%,75.686275%);fill-opacity:1;" d="M 114.167969 97.832031 C 114.140625 97.859375 114.109375 98.390625 114.332031 98.167969 C 114.359375 98.140625 114.390625 97.609375 114.167969 97.832031 Z M 114.167969 97.832031 "/>
<path style=" stroke:none;fill-rule:nonzero;fill:rgb(98.431373%,91.764706%,70.980392%);fill-opacity:1;" d="M 125 98 L 125 99.5 C 125.347656 98.722656 125.347656 98.777344 125 98 Z M 125 98 "/>
<path style=" stroke:none;fill-rule:nonzero;fill:rgb(99.215686%,84.313725%,39.215686%);fill-opacity:1;" d="M 185.667969 98.332031 C 185.640625 98.359375 185.609375 98.890625 185.832031 98.667969 C 185.859375 98.640625 185.890625 98.109375 185.667969 98.332031 Z M 185.667969 98.332031 "/>
<path style=" stroke:none;fill-rule:nonzero;fill:rgb(62.745098%,54.901961%,21.176471%);fill-opacity:1;" d="M 62 98.5 L 62 100 C 62.347656 99.222656 62.347656 99.277344 62 98.5 Z M 62 98.5 "/>
<path style=" stroke:none;fill-rule:nonzero;fill:rgb(98.823529%,87.058824%,50.980392%);fill-opacity:1;" d="M 83.167969 98.832031 C 83.140625 98.859375 83.109375 99.390625 83.332031 99.167969 C 83.359375 99.140625 83.390625 98.609375 83.167969 98.832031 Z M 83.167969 98.832031 "/>
<path style=" stroke:none;fill-rule:nonzero;fill:rgb(98.823529%,88.627451%,58.039216%);fill-opacity:1;" d="M 114 98.5 L 114 100 C 114.347656 99.222656 114.347656 99.277344 114 98.5 Z M 114 98.5 "/>
<path style=" stroke:none;fill-rule:nonzero;fill:rgb(98.823529%,89.411765%,61.960784%);fill-opacity:1;" d="M 203.167969 98.832031 C 203.140625 98.859375 203.109375 99.390625 203.332031 99.167969 C 203.359375 99.140625 203.390625 98.609375 203.167969 98.832031 Z M 203.167969 98.832031 "/>
<path style=" stroke:none;fill-rule:nonzero;fill:rgb(99.215686%,82.745098%,33.333333%);fill-opacity:1;" d="M 214.667969 98.832031 C 214.640625 98.859375 214.609375 99.390625 214.832031 99.167969 C 214.859375 99.140625 214.890625 98.609375 214.667969 98.832031 Z M 214.667969 98.832031 "/>
<path style=" stroke:none;fill-rule:nonzero;fill:rgb(99.215686%,82.352941%,31.372549%);fill-opacity:1;" d="M 174 99 L 174 100.5 C 174.347656 99.722656 174.347656 99.777344 174 99 Z M 174 99 "/>
<path style=" stroke:none;fill-rule:nonzero;fill:rgb(99.607843%,79.215686%,18.039216%);fill-opacity:1;" d="M 185.667969 99.332031 C 185.640625 99.359375 185.609375 99.890625 185.832031 99.667969 C 185.859375 99.640625 185.890625 99.109375 185.667969 99.332031 Z M 185.667969 99.332031 "/>
<path style=" stroke:none;fill-rule:nonzero;fill:rgb(99.607843%,79.607843%,19.215686%);fill-opacity:1;" d="M 83.167969 99.832031 C 83.140625 99.859375 83.109375 100.390625 83.332031 100.167969 C 83.359375 100.140625 83.390625 99.609375 83.167969 99.832031 Z M 83.167969 99.832031 "/>
<path style=" stroke:none;fill-rule:nonzero;fill:rgb(99.215686%,84.313725%,39.607843%);fill-opacity:1;" d="M 94.667969 99.832031 C 94.640625 99.859375 94.609375 100.390625 94.832031 100.167969 C 94.859375 100.140625 94.890625 99.609375 94.667969 99.832031 Z M 94.667969 99.832031 "/>
<path style=" stroke:none;fill-rule:nonzero;fill:rgb(99.215686%,82.352941%,31.764706%);fill-opacity:1;" d="M 114.167969 100.332031 C 114.140625 100.359375 114.109375 100.890625 114.332031 100.667969 C 114.359375 100.640625 114.390625 100.109375 114.167969 100.332031 Z M 114.167969 100.332031 "/>
<path style=" stroke:none;fill-rule:nonzero;fill:rgb(98.431373%,91.764706%,71.764706%);fill-opacity:1;" d="M 94.667969 100.832031 C 94.640625 100.859375 94.609375 101.390625 94.832031 101.167969 C 94.859375 101.140625 94.890625 100.609375 94.667969 100.832031 Z M 94.667969 100.832031 "/>
<path style=" stroke:none;fill-rule:nonzero;fill:rgb(98.823529%,89.803922%,63.137255%);fill-opacity:1;" d="M 174 100.5 L 174 102 C 174.347656 101.222656 174.347656 101.277344 174 100.5 Z M 174 100.5 "/>
<path style=" stroke:none;fill-rule:nonzero;fill:rgb(98.823529%,89.411765%,61.960784%);fill-opacity:1;" d="M 202.667969 100.832031 C 202.640625 100.859375 202.609375 101.390625 202.832031 101.167969 C 202.859375 101.140625 202.890625 100.609375 202.667969 100.832031 Z M 202.667969 100.832031 "/>
<path style=" stroke:none;fill-rule:nonzero;fill:rgb(99.215686%,82.745098%,33.333333%);fill-opacity:1;" d="M 214.167969 100.832031 C 214.140625 100.859375 214.109375 101.390625 214.332031 101.167969 C 214.359375 101.140625 214.390625 100.609375 214.167969 100.832031 Z M 214.167969 100.832031 "/>
<path style=" stroke:none;fill-rule:nonzero;fill:rgb(62.745098%,54.901961%,21.176471%);fill-opacity:1;" d="M 62.5 101 L 62.5 102.5 C 62.847656 101.722656 62.847656 101.777344 62.5 101 Z M 62.5 101 "/>
<path style=" stroke:none;fill-rule:nonzero;fill:rgb(99.607843%,81.568627%,27.45098%);fill-opacity:1;" d="M 125.667969 101.332031 C 125.640625 101.359375 125.609375 101.890625 125.832031 101.667969 C 125.859375 101.640625 125.890625 101.109375 125.667969 101.332031 Z M 125.667969 101.332031 "/>
<path style=" stroke:none;fill-rule:nonzero;fill:rgb(98.431373%,91.764706%,70.980392%);fill-opacity:1;" d="M 185.167969 101.332031 C 185.140625 101.359375 185.109375 101.890625 185.332031 101.667969 C 185.359375 101.640625 185.390625 101.109375 185.167969 101.332031 Z M 185.167969 101.332031 "/>
<path style=" stroke:none;fill-rule:nonzero;fill:rgb(98.823529%,87.058824%,50.980392%);fill-opacity:1;" d="M 83.667969 101.832031 C 83.640625 101.859375 83.609375 102.390625 83.832031 102.167969 C 83.859375 102.140625 83.890625 101.609375 83.667969 101.832031 Z M 83.667969 101.832031 "/>
<path style=" stroke:none;fill-rule:nonzero;fill:rgb(99.215686%,85.490196%,45.098039%);fill-opacity:1;" d="M 125.5 102 L 125.5 103.5 C 125.847656 102.722656 125.847656 102.777344 125.5 102 Z M 125.5 102 "/>
<path style=" stroke:none;fill-rule:nonzero;fill:rgb(99.215686%,86.666667%,49.803922%);fill-opacity:1;" d="M 185.167969 102.332031 C 185.140625 102.359375 185.109375 102.890625 185.332031 102.667969 C 185.359375 102.640625 185.390625 102.109375 185.167969 102.332031 Z M 185.167969 102.332031 "/>
<path style=" stroke:none;fill-rule:nonzero;fill:rgb(99.607843%,79.607843%,18.823529%);fill-opacity:1;" d="M 83.667969 102.832031 C 83.640625 102.859375 83.609375 103.390625 83.832031 103.167969 C 83.859375 103.140625 83.890625 102.609375 83.667969 102.832031 Z M 83.667969 102.832031 "/>
<path style=" stroke:none;fill-rule:nonzero;fill:rgb(99.215686%,84.313725%,39.607843%);fill-opacity:1;" d="M 95.167969 102.832031 C 95.140625 102.859375 95.109375 103.390625 95.332031 103.167969 C 95.359375 103.140625 95.390625 102.609375 95.167969 102.832031 Z M 95.167969 102.832031 "/>
<path style=" stroke:none;fill-rule:nonzero;fill:rgb(98.823529%,89.411765%,61.960784%);fill-opacity:1;" d="M 202.167969 102.832031 C 202.140625 102.859375 202.109375 103.390625 202.332031 103.167969 C 202.359375 103.140625 202.390625 102.609375 202.167969 102.832031 Z M 202.167969 102.832031 "/>
<path style=" stroke:none;fill-rule:nonzero;fill:rgb(99.215686%,83.137255%,33.72549%);fill-opacity:1;" d="M 213.667969 102.832031 C 213.640625 102.859375 213.609375 103.390625 213.832031 103.167969 C 213.859375 103.140625 213.890625 102.609375 213.667969 102.832031 Z M 213.667969 102.832031 "/>
<path style=" stroke:none;fill-rule:nonzero;fill:rgb(98.431373%,92.54902%,75.294118%);fill-opacity:1;" d="M 114.5 103 L 114.5 104.5 C 114.847656 103.722656 114.847656 103.777344 114.5 103 Z M 114.5 103 "/>
<path style=" stroke:none;fill-rule:nonzero;fill:rgb(99.607843%,81.568627%,28.627451%);fill-opacity:1;" d="M 185.167969 103.332031 C 185.140625 103.359375 185.109375 103.890625 185.332031 103.667969 C 185.359375 103.640625 185.390625 103.109375 185.167969 103.332031 Z M 185.167969 103.332031 "/>
<path style=" stroke:none;fill-rule:nonzero;fill:rgb(62.745098%,54.901961%,21.176471%);fill-opacity:1;" d="M 63 103.5 L 63 105 C 63.347656 104.222656 63.347656 104.277344 63 103.5 Z M 63 103.5 "/>
<path style=" stroke:none;fill-rule:nonzero;fill:rgb(98.431373%,91.764706%,71.764706%);fill-opacity:1;" d="M 95.167969 103.832031 C 95.140625 103.859375 95.109375 104.390625 95.332031 104.167969 C 95.359375 104.140625 95.390625 103.609375 95.167969 103.832031 Z M 95.167969 103.832031 "/>
<path style=" stroke:none;fill-rule:nonzero;fill:rgb(98.431373%,91.764706%,70.980392%);fill-opacity:1;" d="M 125.5 103.5 L 125.5 105 C 125.847656 104.222656 125.847656 104.277344 125.5 103.5 Z M 125.5 103.5 "/>
<path style=" stroke:none;fill-rule:nonzero;fill:rgb(99.607843%,82.352941%,30.980392%);fill-opacity:1;" d="M 173.667969 103.832031 C 173.640625 103.859375 173.609375 104.390625 173.832031 104.167969 C 173.859375 104.140625 173.890625 103.609375 173.667969 103.832031 Z M 173.667969 103.832031 "/>
<path style=" stroke:none;fill-rule:nonzero;fill:rgb(98.823529%,87.058824%,50.980392%);fill-opacity:1;" d="M 84.167969 104.832031 C 84.140625 104.859375 84.109375 105.390625 84.332031 105.167969 C 84.359375 105.140625 84.390625 104.609375 84.167969 104.832031 Z M 84.167969 104.832031 "/>
<path style=" stroke:none;fill-rule:nonzero;fill:rgb(99.215686%,86.666667%,49.019608%);fill-opacity:1;" d="M 114.5 104.5 L 114.5 106 C 114.847656 105.222656 114.847656 105.277344 114.5 104.5 Z M 114.5 104.5 "/>
<path style=" stroke:none;fill-rule:nonzero;fill:rgb(98.823529%,87.45098%,52.54902%);fill-opacity:1;" d="M 173.5 104.5 L 173.5 106 C 173.847656 105.222656 173.847656 105.277344 173.5 104.5 Z M 173.5 104.5 "/>
<path style=" stroke:none;fill-rule:nonzero;fill:rgb(98.823529%,89.411765%,61.960784%);fill-opacity:1;" d="M 201.667969 104.832031 C 201.640625 104.859375 201.609375 105.390625 201.832031 105.167969 C 201.859375 105.140625 201.890625 104.609375 201.667969 104.832031 Z M 201.667969 104.832031 "/>
<path style=" stroke:none;fill-rule:nonzero;fill:rgb(99.215686%,83.137255%,33.72549%);fill-opacity:1;" d="M 213.167969 104.832031 C 213.140625 104.859375 213.109375 105.390625 213.332031 105.167969 C 213.359375 105.140625 213.390625 104.609375 213.167969 104.832031 Z M 213.167969 104.832031 "/>
<path style=" stroke:none;fill-rule:nonzero;fill:rgb(99.607843%,79.607843%,18.823529%);fill-opacity:1;" d="M 84.167969 105.832031 C 84.140625 105.859375 84.109375 106.390625 84.332031 106.167969 C 84.359375 106.140625 84.390625 105.609375 84.167969 105.832031 Z M 84.167969 105.832031 "/>
<path style=" stroke:none;fill-rule:nonzero;fill:rgb(99.215686%,84.313725%,39.607843%);fill-opacity:1;" d="M 95.667969 105.832031 C 95.640625 105.859375 95.609375 106.390625 95.832031 106.167969 C 95.859375 106.140625 95.890625 105.609375 95.667969 105.832031 Z M 95.667969 105.832031 "/>
<path style=" stroke:none;fill-rule:nonzero;fill:rgb(98.431373%,91.764706%,70.588235%);fill-opacity:1;" d="M 184.5 105.5 L 184.5 107 C 184.847656 106.222656 184.847656 106.277344 184.5 105.5 Z M 184.5 105.5 "/>
<path style=" stroke:none;fill-rule:nonzero;fill:rgb(62.745098%,54.901961%,21.176471%);fill-opacity:1;" d="M 63.5 106 L 63.5 107.5 C 63.847656 106.722656 63.847656 106.777344 63.5 106 Z M 63.5 106 "/>
<path style=" stroke:none;fill-rule:nonzero;fill:rgb(99.607843%,80.392157%,22.745098%);fill-opacity:1;" d="M 114.5 106 L 114.5 107.5 C 114.847656 106.722656 114.847656 106.777344 114.5 106 Z M 114.5 106 "/>
<path style=" stroke:none;fill-rule:nonzero;fill:rgb(98.431373%,91.764706%,71.764706%);fill-opacity:1;" d="M 95.667969 106.832031 C 95.640625 106.859375 95.609375 107.390625 95.832031 107.167969 C 95.859375 107.140625 95.890625 106.609375 95.667969 106.832031 Z M 95.667969 106.832031 "/>
<path style=" stroke:none;fill-rule:nonzero;fill:rgb(99.607843%,81.568627%,27.45098%);fill-opacity:1;" d="M 126 106.5 L 126 108 C 126.347656 107.222656 126.347656 107.277344 126 106.5 Z M 126 106.5 "/>
<path style=" stroke:none;fill-rule:nonzero;fill:rgb(98.823529%,89.411765%,61.960784%);fill-opacity:1;" d="M 201.167969 106.832031 C 201.140625 106.859375 201.109375 107.390625 201.332031 107.167969 C 201.359375 107.140625 201.390625 106.609375 201.167969 106.832031 Z M 201.167969 106.832031 "/>
<path style=" stroke:none;fill-rule:nonzero;fill:rgb(99.215686%,83.137255%,33.72549%);fill-opacity:1;" d="M 212.667969 106.832031 C 212.640625 106.859375 212.609375 107.390625 212.832031 107.167969 C 212.859375 107.140625 212.890625 106.609375 212.667969 106.832031 Z M 212.667969 106.832031 "/>
<path style=" stroke:none;fill-rule:nonzero;fill:rgb(99.215686%,84.313725%,38.823529%);fill-opacity:1;" d="M 184.667969 107.332031 C 184.640625 107.359375 184.609375 107.890625 184.832031 107.667969 C 184.859375 107.640625 184.890625 107.109375 184.667969 107.332031 Z M 184.667969 107.332031 "/>
<path style=" stroke:none;fill-rule:nonzero;fill:rgb(98.823529%,87.058824%,50.588235%);fill-opacity:1;" d="M 84.5 107.5 L 84.5 109 C 84.847656 108.222656 84.847656 108.277344 84.5 107.5 Z M 84.5 107.5 "/>
<path style=" stroke:none;fill-rule:nonzero;fill:rgb(98.823529%,87.45098%,53.72549%);fill-opacity:1;" d="M 126.167969 108.332031 C 126.140625 108.359375 126.109375 108.890625 126.332031 108.667969 C 126.359375 108.640625 126.390625 108.109375 126.167969 108.332031 Z M 126.167969 108.332031 "/>
<path style=" stroke:none;fill-rule:nonzero;fill:rgb(99.607843%,82.352941%,30.980392%);fill-opacity:1;" d="M 173.167969 108.332031 C 173.140625 108.359375 173.109375 108.890625 173.332031 108.667969 C 173.359375 108.640625 173.390625 108.109375 173.167969 108.332031 Z M 173.167969 108.332031 "/>
<path style=" stroke:none;fill-rule:nonzero;fill:rgb(62.745098%,54.901961%,21.176471%);fill-opacity:1;" d="M 64 108.5 L 64 110 C 64.347656 109.222656 64.347656 109.277344 64 108.5 Z M 64 108.5 "/>
<path style=" stroke:none;fill-rule:nonzero;fill:rgb(99.215686%,84.313725%,39.607843%);fill-opacity:1;" d="M 96.167969 108.832031 C 96.140625 108.859375 96.109375 109.390625 96.332031 109.167969 C 96.359375 109.140625 96.390625 108.609375 96.167969 108.832031 Z M 96.167969 108.832031 "/>
<path style=" stroke:none;fill-rule:nonzero;fill:rgb(98.431373%,92.54902%,75.294118%);fill-opacity:1;" d="M 115.167969 108.832031 C 115.140625 108.859375 115.109375 109.390625 115.332031 109.167969 C 115.359375 109.140625 115.390625 108.609375 115.167969 108.832031 Z M 115.167969 108.832031 "/>
<path style=" stroke:none;fill-rule:nonzero;fill:rgb(98.823529%,89.411765%,61.960784%);fill-opacity:1;" d="M 200.667969 108.832031 C 200.640625 108.859375 200.609375 109.390625 200.832031 109.167969 C 200.859375 109.140625 200.890625 108.609375 200.667969 108.832031 Z M 200.667969 108.832031 "/>
<path style=" stroke:none;fill-rule:nonzero;fill:rgb(99.215686%,83.137255%,33.72549%);fill-opacity:1;" d="M 212.167969 108.832031 C 212.140625 108.859375 212.109375 109.390625 212.332031 109.167969 C 212.359375 109.140625 212.390625 108.609375 212.167969 108.832031 Z M 212.167969 108.832031 "/>
<path style=" stroke:none;fill-rule:nonzero;fill:rgb(98.431373%,91.764706%,70.588235%);fill-opacity:1;" d="M 126.167969 109.332031 C 126.140625 109.359375 126.109375 109.890625 126.332031 109.667969 C 126.359375 109.640625 126.390625 109.109375 126.167969 109.332031 Z M 126.167969 109.332031 "/>
<path style=" stroke:none;fill-rule:nonzero;fill:rgb(98.823529%,87.45098%,52.54902%);fill-opacity:1;" d="M 173 109 L 173 110.5 C 173.347656 109.722656 173.347656 109.777344 173 109 Z M 173 109 "/>
<path style=" stroke:none;fill-rule:nonzero;fill:rgb(98.431373%,91.764706%,71.372549%);fill-opacity:1;" d="M 96.167969 109.832031 C 96.140625 109.859375 96.109375 110.390625 96.332031 110.167969 C 96.359375 110.140625 96.390625 109.609375 96.167969 109.832031 Z M 96.167969 109.832031 "/>
<path style=" stroke:none;fill-rule:nonzero;fill:rgb(98.823529%,88.627451%,57.647059%);fill-opacity:1;" d="M 115 109.5 L 115 111 C 115.347656 110.222656 115.347656 110.277344 115 109.5 Z M 115 109.5 "/>
<path style=" stroke:none;fill-rule:nonzero;fill:rgb(98.431373%,91.764706%,70.588235%);fill-opacity:1;" d="M 184.167969 110.332031 C 184.140625 110.359375 184.109375 110.890625 184.332031 110.667969 C 184.359375 110.640625 184.390625 110.109375 184.167969 110.332031 Z M 184.167969 110.332031 "/>
<path style=" stroke:none;fill-rule:nonzero;fill:rgb(98.823529%,87.058824%,50.588235%);fill-opacity:1;" d="M 85.167969 110.832031 C 85.140625 110.859375 85.109375 111.390625 85.332031 111.167969 C 85.359375 111.140625 85.390625 110.609375 85.167969 110.832031 Z M 85.167969 110.832031 "/>
<path style=" stroke:none;fill-rule:nonzero;fill:rgb(99.607843%,81.568627%,28.627451%);fill-opacity:1;" d="M 200.167969 110.832031 C 200.140625 110.859375 200.109375 111.390625 200.332031 111.167969 C 200.359375 111.140625 200.390625 110.609375 200.167969 110.832031 Z M 200.167969 110.832031 "/>
<path style=" stroke:none;fill-rule:nonzero;fill:rgb(99.215686%,83.137255%,33.72549%);fill-opacity:1;" d="M 211.667969 110.832031 C 211.640625 110.859375 211.609375 111.390625 211.832031 111.167969 C 211.859375 111.140625 211.890625 110.609375 211.667969 110.832031 Z M 211.667969 110.832031 "/>
<path style=" stroke:none;fill-rule:nonzero;fill:rgb(62.745098%,54.901961%,21.176471%);fill-opacity:1;" d="M 64.5 111 L 64.5 112.5 C 64.847656 111.722656 64.847656 111.777344 64.5 111 Z M 64.5 111 "/>
<path style=" stroke:none;fill-rule:nonzero;fill:rgb(99.215686%,82.352941%,31.372549%);fill-opacity:1;" d="M 115.167969 111.332031 C 115.140625 111.359375 115.109375 111.890625 115.332031 111.667969 C 115.359375 111.640625 115.390625 111.109375 115.167969 111.332031 Z M 115.167969 111.332031 "/>
<path style=" stroke:none;fill-rule:nonzero;fill:rgb(99.215686%,86.666667%,49.411765%);fill-opacity:1;" d="M 184.167969 111.332031 C 184.140625 111.359375 184.109375 111.890625 184.332031 111.667969 C 184.359375 111.640625 184.390625 111.109375 184.167969 111.332031 Z M 184.167969 111.332031 "/>
<path style=" stroke:none;fill-rule:nonzero;fill:rgb(99.607843%,79.607843%,18.823529%);fill-opacity:1;" d="M 85.167969 111.832031 C 85.140625 111.859375 85.109375 112.390625 85.332031 112.167969 C 85.359375 112.140625 85.390625 111.609375 85.167969 111.832031 Z M 85.167969 111.832031 "/>
<path style=" stroke:none;fill-rule:nonzero;fill:rgb(99.215686%,84.313725%,39.607843%);fill-opacity:1;" d="M 96.667969 111.832031 C 96.640625 111.859375 96.609375 112.390625 96.832031 112.167969 C 96.859375 112.140625 96.890625 111.609375 96.667969 111.832031 Z M 96.667969 111.832031 "/>
<path style=" stroke:none;fill-rule:nonzero;fill:rgb(99.607843%,81.568627%,27.45098%);fill-opacity:1;" d="M 126.5 112 L 126.5 113.5 C 126.847656 112.722656 126.847656 112.777344 126.5 112 Z M 126.5 112 "/>
<path style=" stroke:none;fill-rule:nonzero;fill:rgb(99.607843%,81.568627%,28.235294%);fill-opacity:1;" d="M 184.167969 112.332031 C 184.140625 112.359375 184.109375 112.890625 184.332031 112.667969 C 184.359375 112.640625 184.390625 112.109375 184.167969 112.332031 Z M 184.167969 112.332031 "/>
<path style=" stroke:none;fill-rule:nonzero;fill:rgb(98.431373%,91.764706%,71.372549%);fill-opacity:1;" d="M 96.667969 112.832031 C 96.640625 112.859375 96.609375 113.390625 96.832031 113.167969 C 96.859375 113.140625 96.890625 112.609375 96.667969 112.832031 Z M 96.667969 112.832031 "/>
<path style=" stroke:none;fill-rule:nonzero;fill:rgb(99.607843%,82.352941%,30.980392%);fill-opacity:1;" d="M 172.5 112.5 L 172.5 114 C 172.847656 113.222656 172.847656 113.277344 172.5 112.5 Z M 172.5 112.5 "/>
<path style=" stroke:none;fill-rule:nonzero;fill:rgb(98.823529%,87.45098%,52.941176%);fill-opacity:1;" d="M 200.667969 112.832031 C 200.640625 112.859375 200.609375 113.390625 200.832031 113.167969 C 200.859375 113.140625 200.890625 112.609375 200.667969 112.832031 Z M 200.667969 112.832031 "/>
<path style=" stroke:none;fill-rule:nonzero;fill:rgb(98.823529%,87.45098%,53.72549%);fill-opacity:1;" d="M 211 112.5 L 211.5 113 Z M 211 112.5 "/>
<path style=" stroke:none;fill-rule:nonzero;fill:rgb(62.745098%,54.901961%,21.176471%);fill-opacity:1;" d="M 65 113.5 L 65 115 C 65.347656 114.222656 65.347656 114.277344 65 113.5 Z M 65 113.5 "/>
<path style=" stroke:none;fill-rule:nonzero;fill:rgb(98.823529%,87.058824%,50.588235%);fill-opacity:1;" d="M 85.5 113.5 L 85.5 115 C 85.847656 114.222656 85.847656 114.277344 85.5 113.5 Z M 85.5 113.5 "/>
<path style=" stroke:none;fill-rule:nonzero;fill:rgb(98.823529%,87.45098%,53.72549%);fill-opacity:1;" d="M 126.667969 113.832031 C 126.640625 113.859375 126.609375 114.390625 126.832031 114.167969 C 126.859375 114.140625 126.890625 113.609375 126.667969 113.832031 Z M 126.667969 113.832031 "/>
<path style=" stroke:none;fill-rule:nonzero;fill:rgb(98.823529%,90.588235%,65.882353%);fill-opacity:1;" d="M 210.5 113.5 L 211 114 Z M 210.5 113.5 "/>
<path style=" stroke:none;fill-rule:nonzero;fill:rgb(98.431373%,92.54902%,74.901961%);fill-opacity:1;" d="M 115.5 114 L 115.5 115.5 C 115.847656 114.722656 115.847656 114.777344 115.5 114 Z M 115.5 114 "/>
<path style=" stroke:none;fill-rule:nonzero;fill:rgb(98.823529%,89.803922%,62.745098%);fill-opacity:1;" d="M 172.667969 114.332031 C 172.640625 114.359375 172.609375 114.890625 172.832031 114.667969 C 172.859375 114.640625 172.890625 114.109375 172.667969 114.332031 Z M 172.667969 114.332031 "/>
<path style=" stroke:none;fill-rule:nonzero;fill:rgb(99.215686%,84.313725%,39.215686%);fill-opacity:1;" d="M 201 114 L 201.5 114.5 Z M 201 114 "/>
<path style=" stroke:none;fill-rule:nonzero;fill:rgb(99.215686%,84.313725%,39.607843%);fill-opacity:1;" d="M 97.167969 114.832031 C 97.140625 114.859375 97.109375 115.390625 97.332031 115.167969 C 97.359375 115.140625 97.390625 114.609375 97.167969 114.832031 Z M 97.167969 114.832031 "/>
<path style=" stroke:none;fill-rule:nonzero;fill:rgb(98.431373%,91.764706%,70.588235%);fill-opacity:1;" d="M 126.667969 114.832031 C 126.640625 114.859375 126.609375 115.390625 126.832031 115.167969 C 126.859375 115.140625 126.890625 114.609375 126.667969 114.832031 Z M 126.667969 114.832031 "/>
<path style=" stroke:none;fill-rule:nonzero;fill:rgb(98.431373%,91.372549%,70.196078%);fill-opacity:1;" d="M 183.5 114.5 L 183.5 116 C 183.847656 115.222656 183.847656 115.277344 183.5 114.5 Z M 183.5 114.5 "/>
<path style=" stroke:none;fill-rule:nonzero;fill:rgb(99.215686%,84.705882%,40.784314%);fill-opacity:1;" d="M 210 114.5 L 210.5 115 Z M 210 114.5 "/>
<path style=" stroke:none;fill-rule:nonzero;fill:rgb(99.215686%,86.27451%,47.45098%);fill-opacity:1;" d="M 209.5 115 L 210 115.5 Z M 209.5 115 "/>
<path style=" stroke:none;fill-rule:nonzero;fill:rgb(98.431373%,91.764706%,71.372549%);fill-opacity:1;" d="M 97.167969 115.832031 C 97.140625 115.859375 97.109375 116.390625 97.332031 116.167969 C 97.359375 116.140625 97.390625 115.609375 97.167969 115.832031 Z M 97.167969 115.832031 "/>
<path style=" stroke:none;fill-rule:nonzero;fill:rgb(99.215686%,86.27451%,48.627451%);fill-opacity:1;" d="M 115.5 115.5 L 115.5 117 C 115.847656 116.222656 115.847656 116.277344 115.5 115.5 Z M 115.5 115.5 "/>
<path style=" stroke:none;fill-rule:nonzero;fill:rgb(98.823529%,87.45098%,52.941176%);fill-opacity:1;" d="M 202.5 115.5 L 203 116 Z M 202.5 115.5 "/>
<path style=" stroke:none;fill-rule:nonzero;fill:rgb(99.215686%,85.490196%,43.921569%);fill-opacity:1;" d="M 209 115.5 L 209.5 116 Z M 209 115.5 "/>
<path style=" stroke:none;fill-rule:nonzero;fill:rgb(62.745098%,54.901961%,21.176471%);fill-opacity:1;" d="M 65.667969 116.332031 C 65.640625 116.359375 65.609375 116.890625 65.832031 116.667969 C 65.859375 116.640625 65.890625 116.109375 65.667969 116.332031 Z M 65.667969 116.332031 "/>
<path style=" stroke:none;fill-rule:nonzero;fill:rgb(99.215686%,83.921569%,38.431373%);fill-opacity:1;" d="M 183.5 116 L 183.5 117.5 C 183.847656 116.722656 183.847656 116.777344 183.5 116 Z M 183.5 116 "/>
<path style=" stroke:none;fill-rule:nonzero;fill:rgb(98.823529%,88.627451%,57.254902%);fill-opacity:1;" d="M 208 116 L 208.5 116.5 Z M 208 116 "/>
<path style=" stroke:none;fill-rule:nonzero;fill:rgb(98.823529%,87.058824%,50.588235%);fill-opacity:1;" d="M 86 116.5 L 86 118 C 86.347656 117.222656 86.347656 117.277344 86 116.5 Z M 86 116.5 "/>
<path style=" stroke:none;fill-rule:nonzero;fill:rgb(98.431373%,93.333333%,78.431373%);fill-opacity:1;" d="M 172.5 116.5 L 172.5 118.5 C 172.855469 117.621094 172.855469 117.378906 172.5 116.5 Z M 172.5 116.5 "/>
<path style=" stroke:none;fill-rule:nonzero;fill:rgb(98.823529%,89.803922%,63.137255%);fill-opacity:1;" d="M 204.5 116.5 C 205.253906 116.839844 205.65625 116.914062 206.5 117 C 205.746094 116.660156 205.34375 116.585938 204.5 116.5 Z M 204.5 116.5 "/>
<path style=" stroke:none;fill-rule:nonzero;fill:rgb(99.607843%,82.352941%,30.588235%);fill-opacity:1;" d="M 206.832031 116.667969 C 206.609375 116.890625 207.140625 116.859375 207.167969 116.832031 C 207.390625 116.609375 206.859375 116.640625 206.832031 116.667969 Z M 206.832031 116.667969 "/>
<path style=" stroke:none;fill-rule:nonzero;fill:rgb(99.607843%,80.392157%,22.745098%);fill-opacity:1;" d="M 115.5 117 L 115.5 118.5 C 115.847656 117.722656 115.847656 117.777344 115.5 117 Z M 115.5 117 "/>
<path style=" stroke:none;fill-rule:nonzero;fill:rgb(99.215686%,84.313725%,39.607843%);fill-opacity:1;" d="M 97.5 117.5 L 97.5 119 C 97.847656 118.222656 97.847656 118.277344 97.5 117.5 Z M 97.5 117.5 "/>
<path style=" stroke:none;fill-rule:nonzero;fill:rgb(99.607843%,81.568627%,27.45098%);fill-opacity:1;" d="M 127.167969 117.832031 C 127.140625 117.859375 127.109375 118.390625 127.332031 118.167969 C 127.359375 118.140625 127.390625 117.609375 127.167969 117.832031 Z M 127.167969 117.832031 "/>
<path style=" stroke:none;fill-rule:nonzero;fill:rgb(62.745098%,54.901961%,21.176471%);fill-opacity:1;" d="M 66.167969 118.832031 C 66.140625 118.859375 66.109375 119.390625 66.332031 119.167969 C 66.359375 119.140625 66.390625 118.609375 66.167969 118.832031 Z M 66.167969 118.832031 "/>
<path style=" stroke:none;fill-rule:nonzero;fill:rgb(99.215686%,85.490196%,44.705882%);fill-opacity:1;" d="M 127.167969 118.832031 C 127.140625 118.859375 127.109375 119.390625 127.332031 119.167969 C 127.359375 119.140625 127.390625 118.609375 127.167969 118.832031 Z M 127.167969 118.832031 "/>
<path style=" stroke:none;fill-rule:nonzero;fill:rgb(99.215686%,82.745098%,32.54902%);fill-opacity:1;" d="M 172.5 118.5 L 173 119 Z M 172.5 118.5 "/>
<path style=" stroke:none;fill-rule:nonzero;fill:rgb(99.215686%,85.882353%,46.27451%);fill-opacity:1;" d="M 183 118.5 L 183.5 119 Z M 183 118.5 "/>
<path style=" stroke:none;fill-rule:nonzero;fill:rgb(99.215686%,86.666667%,50.196078%);fill-opacity:1;" d="M 86.5 119.5 L 86.5 121 C 86.847656 120.222656 86.847656 120.277344 86.5 119.5 Z M 86.5 119.5 "/>
<path style=" stroke:none;fill-rule:nonzero;fill:rgb(98.431373%,92.54902%,74.509804%);fill-opacity:1;" d="M 116.167969 119.832031 C 116.140625 119.859375 116.109375 120.390625 116.332031 120.167969 C 116.359375 120.140625 116.390625 119.609375 116.167969 119.832031 Z M 116.167969 119.832031 "/>
<path style=" stroke:none;fill-rule:nonzero;fill:rgb(98.823529%,89.803922%,62.352941%);fill-opacity:1;" d="M 127 119.5 L 127 121 C 127.347656 120.222656 127.347656 120.277344 127 119.5 Z M 127 119.5 "/>
<path style=" stroke:none;fill-rule:nonzero;fill:rgb(98.823529%,88.235294%,55.686275%);fill-opacity:1;" d="M 182.5 119.5 L 183 120 Z M 182.5 119.5 "/>
<path style=" stroke:none;fill-rule:nonzero;fill:rgb(99.215686%,84.313725%,39.607843%);fill-opacity:1;" d="M 98 120.5 L 98 122 C 98.347656 121.222656 98.347656 121.277344 98 120.5 Z M 98 120.5 "/>
<path style=" stroke:none;fill-rule:nonzero;fill:rgb(98.823529%,88.627451%,57.254902%);fill-opacity:1;" d="M 116.167969 120.832031 C 116.140625 120.859375 116.109375 121.390625 116.332031 121.167969 C 116.359375 121.140625 116.390625 120.609375 116.167969 120.832031 Z M 116.167969 120.832031 "/>
<path style=" stroke:none;fill-rule:nonzero;fill:rgb(98.823529%,90.980392%,68.235294%);fill-opacity:1;" d="M 174 120.5 L 174.5 121 Z M 174 120.5 "/>
<path style=" stroke:none;fill-rule:nonzero;fill:rgb(62.745098%,54.901961%,21.176471%);fill-opacity:1;" d="M 66.667969 121.332031 C 66.640625 121.359375 66.609375 121.890625 66.832031 121.667969 C 66.859375 121.640625 66.890625 121.109375 66.667969 121.332031 Z M 66.667969 121.332031 "/>
<path style=" stroke:none;fill-rule:nonzero;fill:rgb(98.823529%,87.45098%,52.54902%);fill-opacity:1;" d="M 174.5 121 L 175 121.5 Z M 174.5 121 "/>
<path style=" stroke:none;fill-rule:nonzero;fill:rgb(98.823529%,91.372549%,69.019608%);fill-opacity:1;" d="M 181 121 L 181.5 121.5 Z M 181 121 "/>
<path style=" stroke:none;fill-rule:nonzero;fill:rgb(99.215686%,84.313725%,39.607843%);fill-opacity:1;" d="M 116.167969 121.832031 C 116.140625 121.859375 116.109375 122.390625 116.332031 122.167969 C 116.359375 122.140625 116.390625 121.609375 116.167969 121.832031 Z M 116.167969 121.832031 "/>
<path style=" stroke:none;fill-rule:nonzero;fill:rgb(99.215686%,83.137255%,34.509804%);fill-opacity:1;" d="M 175 121.5 L 175.5 122 Z M 175 121.5 "/>
<path style=" stroke:none;fill-rule:nonzero;fill:rgb(99.215686%,82.352941%,31.764706%);fill-opacity:1;" d="M 180.5 121.5 L 181 122 Z M 180.5 121.5 "/>
<path style=" stroke:none;fill-rule:nonzero;fill:rgb(98.823529%,90.588235%,66.27451%);fill-opacity:1;" d="M 87.167969 122.332031 C 87.140625 122.359375 87.109375 122.890625 87.332031 122.667969 C 87.359375 122.640625 87.390625 122.109375 87.167969 122.332031 Z M 87.167969 122.332031 "/>
<path style=" stroke:none;fill-rule:nonzero;fill:rgb(99.215686%,85.098039%,43.137255%);fill-opacity:1;" d="M 176.5 122 L 177 122.5 L 176.5 122 M 178.5 122 C 179.125 122.34375 179.273438 122.375 180 122.5 C 179.375 122.15625 179.226562 122.125 178.5 122 Z M 178.5 122 "/>
<path style=" stroke:none;fill-rule:nonzero;fill:rgb(99.607843%,80.392157%,22.352941%);fill-opacity:1;" d="M 116.167969 122.832031 C 116.140625 122.859375 116.109375 123.390625 116.332031 123.167969 C 116.359375 123.140625 116.390625 122.609375 116.167969 122.832031 Z M 116.167969 122.832031 "/>
<path style=" stroke:none;fill-rule:nonzero;fill:rgb(99.215686%,83.137255%,34.117647%);fill-opacity:1;" d="M 87.167969 123.332031 C 87.140625 123.359375 87.109375 123.890625 87.332031 123.667969 C 87.359375 123.640625 87.390625 123.109375 87.167969 123.332031 Z M 87.167969 123.332031 "/>
<path style=" stroke:none;fill-rule:nonzero;fill:rgb(99.607843%,81.568627%,27.45098%);fill-opacity:1;" d="M 127.667969 123.332031 C 127.640625 123.359375 127.609375 123.890625 127.832031 123.667969 C 127.859375 123.640625 127.890625 123.109375 127.667969 123.332031 Z M 127.667969 123.332031 "/>
<path style=" stroke:none;fill-rule:nonzero;fill:rgb(62.745098%,54.901961%,21.176471%);fill-opacity:1;" d="M 67.167969 123.832031 C 67.140625 123.859375 67.109375 124.390625 67.332031 124.167969 C 67.359375 124.140625 67.390625 123.609375 67.167969 123.832031 Z M 67.167969 123.832031 "/>
<path style=" stroke:none;fill-rule:nonzero;fill:rgb(99.215686%,84.313725%,39.607843%);fill-opacity:1;" d="M 98.5 123.5 L 98.5 125 C 98.847656 124.222656 98.847656 124.277344 98.5 123.5 Z M 98.5 123.5 "/>
<path style=" stroke:none;fill-rule:nonzero;fill:rgb(99.215686%,85.490196%,44.705882%);fill-opacity:1;" d="M 127.667969 124.332031 C 127.640625 124.359375 127.609375 124.890625 127.832031 124.667969 C 127.859375 124.640625 127.890625 124.109375 127.667969 124.332031 Z M 127.667969 124.332031 "/>
<path style=" stroke:none;fill-rule:nonzero;fill:rgb(98.823529%,87.45098%,53.333333%);fill-opacity:1;" d="M 145 124.5 L 145.5 125 Z M 145 124.5 "/>
<path style=" stroke:none;fill-rule:nonzero;fill:rgb(98.823529%,88.235294%,56.078431%);fill-opacity:1;" d="M 155 124.5 L 155.5 125 Z M 155 124.5 "/>
<path style=" stroke:none;fill-rule:nonzero;fill:rgb(98.823529%,90.588235%,66.27451%);fill-opacity:1;" d="M 87.667969 125.332031 C 87.640625 125.359375 87.609375 125.890625 87.832031 125.667969 C 87.859375 125.640625 87.890625 125.109375 87.667969 125.332031 Z M 87.667969 125.332031 "/>
<path style=" stroke:none;fill-rule:nonzero;fill:rgb(98.431373%,92.54902%,74.509804%);fill-opacity:1;" d="M 116.667969 125.332031 C 116.640625 125.359375 116.609375 125.890625 116.832031 125.667969 C 116.859375 125.640625 116.890625 125.109375 116.667969 125.332031 Z M 116.667969 125.332031 "/>
<path style=" stroke:none;fill-rule:nonzero;fill:rgb(98.823529%,89.803922%,62.352941%);fill-opacity:1;" d="M 127.5 125 L 127.5 126.5 C 127.847656 125.722656 127.847656 125.777344 127.5 125 Z M 127.5 125 "/>
<path style=" stroke:none;fill-rule:nonzero;fill:rgb(62.745098%,54.901961%,21.176471%);fill-opacity:1;" d="M 67.667969 126.332031 C 67.640625 126.359375 67.609375 126.890625 67.832031 126.667969 C 67.859375 126.640625 67.890625 126.109375 67.667969 126.332031 Z M 67.667969 126.332031 "/>
<path style=" stroke:none;fill-rule:nonzero;fill:rgb(99.215686%,83.137255%,34.117647%);fill-opacity:1;" d="M 87.667969 126.332031 C 87.640625 126.359375 87.609375 126.890625 87.832031 126.667969 C 87.859375 126.640625 87.890625 126.109375 87.667969 126.332031 Z M 87.667969 126.332031 "/>
<path style=" stroke:none;fill-rule:nonzero;fill:rgb(98.823529%,88.235294%,56.862745%);fill-opacity:1;" d="M 116.5 126 L 116.5 127.5 C 116.847656 126.722656 116.847656 126.777344 116.5 126 Z M 116.5 126 "/>
<path style=" stroke:none;fill-rule:nonzero;fill:rgb(99.215686%,86.666667%,49.019608%);fill-opacity:1;" d="M 146 126 L 146.5 126.5 Z M 146 126 "/>
<path style=" stroke:none;fill-rule:nonzero;fill:rgb(98.823529%,87.45098%,52.156863%);fill-opacity:1;" d="M 154 126 L 154.5 126.5 Z M 154 126 "/>
<path style=" stroke:none;fill-rule:nonzero;fill:rgb(99.215686%,84.313725%,39.215686%);fill-opacity:1;" d="M 99.167969 126.832031 C 99.140625 126.859375 99.109375 127.390625 99.332031 127.167969 C 99.359375 127.140625 99.390625 126.609375 99.167969 126.832031 Z M 99.167969 126.832031 "/>
<path style=" stroke:none;fill-rule:nonzero;fill:rgb(99.215686%,82.745098%,32.941176%);fill-opacity:1;" d="M 146.5 126.5 L 147 127 Z M 146.5 126.5 "/>
<path style=" stroke:none;fill-rule:nonzero;fill:rgb(99.215686%,83.137255%,34.901961%);fill-opacity:1;" d="M 153.5 126.5 L 154 127 Z M 153.5 126.5 "/>
<path style=" stroke:none;fill-rule:nonzero;fill:rgb(98.823529%,90.588235%,65.882353%);fill-opacity:1;" d="M 147.5 127 L 148 127.5 Z M 147.5 127 "/>
<path style=" stroke:none;fill-rule:nonzero;fill:rgb(98.823529%,90.980392%,67.843137%);fill-opacity:1;" d="M 152.5 127 L 153 127.5 Z M 152.5 127 "/>
<path style=" stroke:none;fill-rule:nonzero;fill:rgb(98.431373%,91.764706%,71.372549%);fill-opacity:1;" d="M 99.167969 127.832031 C 99.140625 127.859375 99.109375 128.390625 99.332031 128.167969 C 99.359375 128.140625 99.390625 127.609375 99.167969 127.832031 Z M 99.167969 127.832031 "/>
<path style=" stroke:none;fill-rule:nonzero;fill:rgb(99.607843%,82.352941%,30.588235%);fill-opacity:1;" d="M 116.667969 127.832031 C 116.640625 127.859375 116.609375 128.390625 116.832031 128.167969 C 116.859375 128.140625 116.890625 127.609375 116.667969 127.832031 Z M 116.667969 127.832031 "/>
<path style=" stroke:none;fill-rule:nonzero;fill:rgb(98.823529%,89.019608%,59.215686%);fill-opacity:1;" d="M 148.832031 127.667969 C 148.609375 127.890625 149.140625 127.859375 149.167969 127.832031 C 149.390625 127.609375 148.859375 127.640625 148.832031 127.667969 Z M 148.832031 127.667969 "/>
<path style=" stroke:none;fill-rule:nonzero;fill:rgb(99.215686%,84.705882%,40.392157%);fill-opacity:1;" d="M 151.332031 127.667969 C 151.109375 127.890625 151.640625 127.859375 151.667969 127.832031 C 151.890625 127.609375 151.359375 127.640625 151.332031 127.667969 Z M 151.332031 127.667969 "/>
<path style=" stroke:none;fill-rule:nonzero;fill:rgb(98.823529%,90.588235%,65.882353%);fill-opacity:1;" d="M 88 128 L 88 129.5 C 88.347656 128.722656 88.347656 128.777344 88 128 Z M 88 128 "/>
<path style=" stroke:none;fill-rule:nonzero;fill:rgb(98.823529%,90.588235%,66.27451%);fill-opacity:1;" d="M 127.5 128 L 127.5 129.5 C 127.847656 128.722656 127.847656 128.777344 127.5 128 Z M 127.5 128 "/>
<path style=" stroke:none;fill-rule:nonzero;fill:rgb(62.745098%,54.901961%,21.176471%);fill-opacity:1;" d="M 68.167969 128.832031 C 68.140625 128.859375 68.109375 129.390625 68.332031 129.167969 C 68.359375 129.140625 68.390625 128.609375 68.167969 128.832031 Z M 68.167969 128.832031 "/>
<path style=" stroke:none;fill-rule:nonzero;fill:rgb(99.607843%,79.215686%,18.039216%);fill-opacity:1;" d="M 88.167969 129.832031 C 88.140625 129.859375 88.109375 130.390625 88.332031 130.167969 C 88.359375 130.140625 88.390625 129.609375 88.167969 129.832031 Z M 88.167969 129.832031 "/>
<path style=" stroke:none;fill-rule:nonzero;fill:rgb(99.215686%,84.313725%,39.215686%);fill-opacity:1;" d="M 99.667969 129.832031 C 99.640625 129.859375 99.609375 130.390625 99.832031 130.167969 C 99.859375 130.140625 99.890625 129.609375 99.667969 129.832031 Z M 99.667969 129.832031 "/>
<path style=" stroke:none;fill-rule:nonzero;fill:rgb(99.607843%,81.568627%,28.235294%);fill-opacity:1;" d="M 117.167969 129.832031 C 117.140625 129.859375 117.109375 130.390625 117.332031 130.167969 C 117.359375 130.140625 117.390625 129.609375 117.167969 129.832031 Z M 117.167969 129.832031 "/>
<path style=" stroke:none;fill-rule:nonzero;fill:rgb(99.215686%,83.529412%,36.862745%);fill-opacity:1;" d="M 127.5 129.5 L 128 130 Z M 127.5 129.5 "/>
<path style=" stroke:none;fill-rule:nonzero;fill:rgb(98.431373%,91.764706%,71.372549%);fill-opacity:1;" d="M 99.667969 130.832031 C 99.640625 130.859375 99.609375 131.390625 99.832031 131.167969 C 99.859375 131.140625 99.890625 130.609375 99.667969 130.832031 Z M 99.667969 130.832031 "/>
<path style=" stroke:none;fill-rule:nonzero;fill:rgb(62.745098%,54.901961%,21.176471%);fill-opacity:1;" d="M 68.667969 131.332031 C 68.640625 131.359375 68.609375 131.890625 68.832031 131.667969 C 68.859375 131.640625 68.890625 131.109375 68.667969 131.332031 Z M 68.667969 131.332031 "/>
<path style=" stroke:none;fill-rule:nonzero;fill:rgb(98.823529%,90.588235%,65.882353%);fill-opacity:1;" d="M 88.667969 131.332031 C 88.640625 131.359375 88.609375 131.890625 88.832031 131.667969 C 88.859375 131.640625 88.890625 131.109375 88.667969 131.332031 Z M 88.667969 131.332031 "/>
<path style=" stroke:none;fill-rule:nonzero;fill:rgb(99.215686%,83.137255%,34.117647%);fill-opacity:1;" d="M 88.667969 132.332031 C 88.640625 132.359375 88.609375 132.890625 88.832031 132.667969 C 88.859375 132.640625 88.890625 132.109375 88.667969 132.332031 Z M 88.667969 132.332031 "/>
<path style=" stroke:none;fill-rule:nonzero;fill:rgb(99.607843%,82.352941%,30.980392%);fill-opacity:1;" d="M 118.5 132 L 119 132.5 Z M 118.5 132 "/>
<path style=" stroke:none;fill-rule:nonzero;fill:rgb(98.823529%,89.803922%,63.529412%);fill-opacity:1;" d="M 125.5 132 L 126 132.5 Z M 125.5 132 "/>
<path style=" stroke:none;fill-rule:nonzero;fill:rgb(98.823529%,88.627451%,58.431373%);fill-opacity:1;" d="M 119.5 132.5 L 120 133 Z M 119.5 132.5 "/>
<path style=" stroke:none;fill-rule:nonzero;fill:rgb(99.215686%,85.882353%,45.882353%);fill-opacity:1;" d="M 125 132.5 L 125.5 133 Z M 125 132.5 "/>
<path style=" stroke:none;fill-rule:nonzero;fill:rgb(98.823529%,91.372549%,69.019608%);fill-opacity:1;" d="M 120.832031 133.167969 C 120.609375 133.390625 121.140625 133.359375 121.167969 133.332031 C 121.390625 133.109375 120.859375 133.140625 120.832031 133.167969 Z M 120.832031 133.167969 "/>
<path style=" stroke:none;fill-rule:nonzero;fill:rgb(98.823529%,87.843137%,54.901961%);fill-opacity:1;" d="M 123.5 133 L 124 133.5 Z M 123.5 133 "/>
<path style=" stroke:none;fill-rule:nonzero;fill:rgb(62.352941%,54.901961%,21.568627%);fill-opacity:1;" d="M 69.167969 133.832031 C 69.140625 133.859375 69.109375 134.390625 69.332031 134.167969 C 69.359375 134.140625 69.390625 133.609375 69.167969 133.832031 Z M 69.167969 133.832031 "/>
<path style=" stroke:none;fill-rule:nonzero;fill:rgb(98.823529%,88.235294%,56.078431%);fill-opacity:1;" d="M 89 134.5 L 89.5 135 Z M 89 134.5 "/>
<path style=" stroke:none;fill-rule:nonzero;fill:rgb(98.823529%,90.588235%,67.058824%);fill-opacity:1;" d="M 99.5 135 L 100 135.5 Z M 99.5 135 "/>
<path style=" stroke:none;fill-rule:nonzero;fill:rgb(62.352941%,54.901961%,21.568627%);fill-opacity:1;" d="M 69.667969 136.332031 C 69.640625 136.359375 69.609375 136.890625 69.832031 136.667969 C 69.859375 136.640625 69.890625 136.109375 69.667969 136.332031 Z M 69.667969 136.332031 "/>
<path style=" stroke:none;fill-rule:nonzero;fill:rgb(99.215686%,86.27451%,48.235294%);fill-opacity:1;" d="M 89.5 136 L 90 136.5 Z M 89.5 136 "/>
<path style=" stroke:none;fill-rule:nonzero;fill:rgb(99.215686%,82.745098%,33.333333%);fill-opacity:1;" d="M 98.5 137 L 99 137.5 Z M 98.5 137 "/>
<path style=" stroke:none;fill-rule:nonzero;fill:rgb(99.215686%,86.27451%,48.627451%);fill-opacity:1;" d="M 91.5 138 L 92 138.5 Z M 91.5 138 "/>
<path style=" stroke:none;fill-rule:nonzero;fill:rgb(62.352941%,54.901961%,21.568627%);fill-opacity:1;" d="M 70.167969 138.832031 C 70.140625 138.859375 70.109375 139.390625 70.332031 139.167969 C 70.359375 139.140625 70.390625 138.609375 70.167969 138.832031 Z M 70.167969 138.832031 "/>
<path style=" stroke:none;fill-rule:nonzero;fill:rgb(98.431373%,92.941176%,76.078431%);fill-opacity:1;" d="M 92.832031 138.667969 C 92.609375 138.890625 93.140625 138.859375 93.167969 138.832031 C 93.390625 138.609375 92.859375 138.640625 92.832031 138.667969 Z M 92.832031 138.667969 "/>
<path style=" stroke:none;fill-rule:nonzero;fill:rgb(98.823529%,87.843137%,54.117647%);fill-opacity:1;" d="M 96 138.5 L 96.5 139 Z M 96 138.5 "/>
<path style=" stroke:none;fill-rule:nonzero;fill:rgb(99.607843%,80.784314%,23.529412%);fill-opacity:1;" d="M 94 139 C 94.625 139.34375 94.773438 139.375 95.5 139.5 C 94.875 139.15625 94.726562 139.125 94 139 Z M 94 139 "/>
<path style=" stroke:none;fill-rule:nonzero;fill:rgb(62.352941%,54.901961%,21.568627%);fill-opacity:1;" d="M 70.667969 141.332031 C 70.640625 141.359375 70.609375 141.890625 70.832031 141.667969 C 70.859375 141.640625 70.890625 141.109375 70.667969 141.332031 M 71.167969 143.832031 C 71.140625 143.859375 71.109375 144.390625 71.332031 144.167969 C 71.359375 144.140625 71.390625 143.609375 71.167969 143.832031 M 71.667969 146.332031 C 71.640625 146.359375 71.609375 146.890625 71.832031 146.667969 C 71.859375 146.640625 71.890625 146.109375 71.667969 146.332031 M 72 148.5 L 72 150 C 72.347656 149.222656 72.347656 149.277344 72 148.5 Z M 72 148.5 "/>
<path style=" stroke:none;fill-rule:nonzero;fill:rgb(40.784314%,42.745098%,32.156863%);fill-opacity:1;" d="M 72.667969 151.332031 C 72.640625 151.359375 72.609375 151.890625 72.832031 151.667969 C 72.859375 151.640625 72.890625 151.109375 72.667969 151.332031 Z M 72.667969 151.332031 "/>
<path style=" stroke:none;fill-rule:nonzero;fill:rgb(49.803922%,47.843137%,27.843137%);fill-opacity:1;" d="M 73.167969 152.832031 C 73.140625 152.859375 73.109375 153.390625 73.332031 153.167969 C 73.359375 153.140625 73.390625 152.609375 73.167969 152.832031 Z M 73.167969 152.832031 "/>
<path style=" stroke:none;fill-rule:nonzero;fill:rgb(57.647059%,52.156863%,23.921569%);fill-opacity:1;" d="M 73.5 154.5 L 74 155 Z M 73.5 154.5 "/>
<path style=" stroke:none;fill-rule:nonzero;fill:rgb(61.568627%,54.509804%,21.960784%);fill-opacity:1;" d="M 74 155.5 L 74.5 156 Z M 74 155.5 "/>
<path style=" stroke:none;fill-rule:nonzero;fill:rgb(62.352941%,54.901961%,21.568627%);fill-opacity:1;" d="M 74.5 156.5 L 75 157 Z M 74.5 156.5 "/>
<path style=" stroke:none;fill-rule:nonzero;fill:rgb(62.745098%,54.901961%,21.176471%);fill-opacity:1;" d="M 75 157.5 L 75.5 158 Z M 75 157.5 "/>
<path style=" stroke:none;fill-rule:nonzero;fill:rgb(63.529412%,55.294118%,21.176471%);fill-opacity:1;" d="M 75.5 158.5 L 76 159 Z M 75.5 158.5 "/>
<path style=" stroke:none;fill-rule:nonzero;fill:rgb(61.176471%,54.117647%,22.352941%);fill-opacity:1;" d="M 76.5 160 L 77 160.5 Z M 76.5 160 "/>
<path style=" stroke:none;fill-rule:nonzero;fill:rgb(73.72549%,61.176471%,16.078431%);fill-opacity:1;" d="M 77 160.5 L 77.5 161 Z M 77 160.5 "/>
<path style=" stroke:none;fill-rule:nonzero;fill:rgb(27.058824%,35.294118%,39.215686%);fill-opacity:1;" d="M 91 194.714844 C 83.074219 195.851562 76.039062 199.90625 71.390625 206.5 C 63.226562 218.089844 65.582031 235.300781 76.5 244.265625 C 79.324219 246.585938 82.503906 248.324219 86 249.398438 C 90.101562 250.65625 94.742188 250.910156 99 250.355469 C 102.550781 249.894531 105.882812 248.570312 109 246.84375 C 111.679688 245.359375 113.890625 243.246094 115.953125 241 C 125.367188 230.75 124.515625 213.578125 115.414062 203.503906 C 109.4375 196.886719 99.835938 193.445312 91 194.714844 M 202.5 194.714844 C 198.21875 195.328125 194.175781 196.609375 190.5 198.9375 C 177.394531 207.242188 173.871094 226.398438 182.894531 239 C 189.171875 247.761719 199.945312 251.859375 210.5 250.351562 C 214.144531 249.828125 217.902344 248.4375 221 246.453125 C 235.816406 236.972656 238.476562 215.148438 225.914062 202.585938 C 222.378906 199.050781 217.808594 196.652344 213 195.378906 C 209.621094 194.484375 205.960938 194.21875 202.5 194.714844 Z M 202.5 194.714844 "/>
</g>
</svg>
